<?xml version="1.0" encoding="UTF-8"?>
<svg id="Layer_1" data-name="Layer 1" xmlns="http://www.w3.org/2000/svg" viewBox="0 0 3702.24 2100">
  <defs>
    <style>
      .cls-1 {
        fill: #fff;
      }

      .cls-2 {
        fill: #f17679;
      }

      .cls-3 {
        fill: #e0e0e0;
      }

      .cls-4 {
        fill: #805034;
      }

      .cls-5 {
        fill: #ef6b51;
      }

      .cls-6 {
        fill: #0e0e0e;
      }

      .cls-7 {
        fill: #f5a5a8;
      }

      .cls-8 {
        fill: #000a2a;
      }

      .cls-9 {
        fill: #487bbb;
      }

      .cls-10 {
        fill: #2b8c79;
      }

      .cls-11 {
        fill: #f8f8f8;
      }

      .cls-12 {
        fill: #ffc35f;
      }
    </style>
  </defs>
  <rect class="cls-1" width="3702.24" height="2100"/>
  <g id="Layer_1-2" data-name="Layer 1">
    <path class="cls-11" d="m2640.64,1893.88c23.82-31.78,42.71-67.55,55.87-104.87,33.12-93.96,53.24-211.86,37.81-310.28-17.78-113.39-79.86-214.59-169.36-286.44-63.51-50.98-146.44-74.92-227.88-73.64-81.44,1.27-161.36,26.59-233.01,65.32-99.29,53.66-184.72,133.01-290.16,173.26-93.54,35.72-196.15,38.05-296.27,36.32s-201.52-6.98-299.24,14.85c-97.72,21.83-193.52,75.28-241.05,163.41-37.19,68.96-40.51,155.2-8.72,226.82,16.44,37.04,42.1,69.73,73.56,95.25"/>
    <path class="cls-12" d="m1095.8,483.65s10.31-79.02,25.38-80.59c15.08-1.57,40.1,75.77,40.1,75.77,0,0,71.06-10.29,83.38.78,12.32,11.06-54.86,61.58-54.86,61.58,0,0,33.87,72.55,23.46,81.14-10.42,8.59-76.82-40.39-76.82-40.39,0,0-54.01,58-69.65,51.93-15.64-6.07,12.03-86.83,12.03-86.83,0,0-75.75-28.5-71.6-47.22,3.18-14.35,88.58-16.18,88.58-16.18h0Z"/>
    <path class="cls-12" d="m1796.8,325.52s22.62-119.82,45.78-120.9c23.17-1.08,54.66,119.24,54.66,119.24,0,0,109.45-9.53,127.31,8.44,17.86,17.97-89.16,89.3-89.16,89.3,0,0,45.44,113.78,28.78,125.99-16.66,12.22-113.84-68.38-113.84-68.38,0,0-87.55,83.91-110.91,73.27-23.36-10.64,25.94-131.6,25.94-131.6,0,0-113.24-50.13-105.28-78.36,6.11-21.65,136.73-17.01,136.73-17.01h-.01Z"/>
    <path class="cls-12" d="m2187.71,378.97s33.58-93.52,52.36-91.42c18.78,2.1,28.68,102.98,28.68,102.98,0,0,89.3,6.38,101.37,23.13,12.07,16.76-83.22,60.42-83.22,60.42,0,0,21.96,97.39,6.99,105.09-14.98,7.69-82.84-69.64-82.84-69.64,0,0-81.23,56.29-98.66,44.73s37.76-102.57,37.76-102.57c0,0-84.7-54.87-74.66-76.57,7.69-16.64,112.21,3.86,112.21,3.86h.01Z"/>
    <path class="cls-12" d="m1426.31,387.49s23.5-96.54,42.4-96.44,39.41,99.37,39.41,99.37c0,0,89.48-3.1,103.25,12.29s-76.36,68.87-76.36,68.87c0,0,32.13,94.52,18.06,103.76-14.08,9.23-89.73-60.5-89.73-60.5,0,0-74.82,64.56-93.38,54.91s26.71-105.99,26.71-105.99c0,0-90.02-45.61-82.34-68.25,5.89-17.36,111.99-8.02,111.99-8.02h-.01Z"/>
    <path class="cls-12" d="m2529.16,483.68s13.17-78.59,28.29-79.61,37.32,77.18,37.32,77.18c0,0,71.39-7.7,83.3,3.8s-57.06,59.54-57.06,59.54c0,0,31.22,73.73,20.49,81.94-10.72,8.21-75.3-43.15-75.3-43.15,0,0-56.08,56.01-71.49,49.37s15.18-86.33,15.18-86.33c0,0-74.67-31.23-69.84-49.79,3.7-14.23,89.11-12.95,89.11-12.95h0Z"/>
    <g>
      <g>
        <path class="cls-7" d="m2098.4,738.39c-19.69-22.71-41.86,6.38-41.86,6.38-5.17-19.96-15.31-23.9-18.27-20.65s.84,6.01,3.94,16.31c2.53,8.41,6.74,30.85,8.21,39.16l-10.08,29.48,39.13,8.78,3.57-27.4c.33-2.57,1.68-4.89,3.76-6.44,12.79-9.5,29.09-25.45,11.61-45.61h0Z"/>
        <path class="cls-5" d="m2091.15,772.97c-1.17,0-2.28-.39-3.38-1.21-1.8-1.34-2.19-3.03-1.98-4.51-1.91.66-4.32.72-6.3-1.24-1.77-1.76-2.11-3.76-1.89-5.43-1.92.79-4.32,1.04-6.24-.75-2.59-2.41-2.27-5.63-1.37-7.95-2.08.26-5.18.21-7.05-1.95-1.3-1.5-1.85-3.33-1.58-5.31.54-3.97,4.34-8.47,10.69-12.67.46-.31,1.08-.18,1.39.28.3.46.18,1.08-.28,1.39-5.78,3.82-9.36,7.93-9.81,11.27-.19,1.41.18,2.66,1.11,3.73,2.09,2.4,7.05.93,7.1.91l2.74-.83-1.62,2.36c-.12.18-2.98,4.47.07,7.31,2.36,2.2,5.91-.67,6.06-.79l4.96-4.07-3.48,5.39c-.08.12-1.94,3.14.64,5.69,2.55,2.53,6.02-.14,6.16-.26l5.6-4.41-4.17,5.79c-.19.27-1.84,2.74.47,4.46,2.32,1.72,4.9,1.18,12.61-6.59.39-.39,1.02-.39,1.41,0s.39,1.02,0,1.41c-5.02,5.06-8.64,8-11.84,8l-.02-.02Z"/>
        <path class="cls-5" d="m2087.68,766.11c-.28,0-.56-.12-.76-.35-.36-.42-.31-1.05.11-1.41l13.83-11.91c.42-.36,1.05-.31,1.41.1.36.42.31,1.05-.11,1.41l-13.83,11.91c-.19.16-.42.24-.65.24h0Z"/>
        <path class="cls-5" d="m2079.41,759.35c-.28,0-.55-.11-.75-.34-.37-.41-.33-1.05.09-1.41l17.74-15.63c.41-.36,1.05-.33,1.41.09.37.41.33,1.05-.09,1.41l-17.74,15.63c-.19.17-.43.25-.66.25Z"/>
        <path class="cls-5" d="m2071.83,751.49c-.28,0-.56-.12-.76-.35-.36-.42-.32-1.05.1-1.41l17.21-14.9c.42-.36,1.05-.32,1.41.1s.32,1.05-.1,1.41l-17.21,14.9c-.19.16-.42.24-.65.24h0Z"/>
      </g>
      <g>
        <path class="cls-7" d="m1584.38,738.39c19.69-22.71,41.86,6.38,41.86,6.38,5.17-19.96,15.31-23.9,18.27-20.65s-.84,6.01-3.94,16.31c-2.53,8.41-6.74,30.85-8.21,39.16l10.08,29.48-39.13,8.78-3.57-27.4c-.33-2.57-1.68-4.89-3.76-6.44-12.79-9.5-29.09-25.45-11.61-45.61h.01Z"/>
        <path class="cls-5" d="m1591.63,772.97c-3.2,0-6.82-2.94-11.84-8-.39-.39-.39-1.03,0-1.41.39-.39,1.03-.39,1.41,0,7.71,7.77,10.29,8.32,12.61,6.59,2.31-1.72.67-4.18.47-4.46l-3.99-5.64,5.42,4.27c.15.11,3.63,2.77,6.16.26,2.6-2.58.72-5.57.64-5.69l-3.53-5.46,5.01,4.15c.15.12,3.69,2.99,6.06.79,3.05-2.84.19-7.13.07-7.31l-1.6-2.35,2.72.83s5.01,1.49,7.1-.91c.93-1.06,1.3-2.32,1.11-3.73-.45-3.34-4.03-7.45-9.81-11.27-.46-.3-.59-.92-.28-1.39.3-.46.93-.59,1.39-.28,6.35,4.2,10.15,8.7,10.69,12.67.27,1.98-.28,3.81-1.58,5.31-1.87,2.15-4.97,2.21-7.05,1.95.9,2.31,1.21,5.54-1.37,7.95-1.92,1.79-4.32,1.54-6.24.75.22,1.67-.13,3.67-1.89,5.43-1.98,1.96-4.38,1.9-6.3,1.24.2,1.48-.18,3.17-1.98,4.51-1.1.82-2.22,1.21-3.38,1.21h-.02Z"/>
        <path class="cls-5" d="m1595.1,766.11c-.23,0-.46-.08-.65-.24l-13.83-11.91c-.42-.36-.47-.99-.1-1.41.36-.42.99-.47,1.41-.1l13.83,11.91c.42.36.47.99.1,1.41-.2.23-.48.35-.76.35h0Z"/>
        <path class="cls-5" d="m1603.37,759.35c-.23,0-.47-.08-.66-.25l-17.74-15.63c-.41-.37-.45-1-.09-1.41.37-.41,1-.45,1.41-.09l17.74,15.63c.41.37.45,1,.09,1.41-.2.22-.47.34-.75.34Z"/>
        <path class="cls-5" d="m1610.95,751.49c-.23,0-.46-.08-.65-.24l-17.21-14.9c-.42-.36-.46-.99-.1-1.41.36-.42.99-.46,1.41-.1l17.21,14.9c.42.36.46.99.1,1.41-.2.23-.48.35-.76.35h0Z"/>
      </g>
      <path class="cls-6" d="m1597.65,1893.88c3.27-53.36,85.11-25.21,84.45-74.31h72.92l-5.68,74.31h-151.69Z"/>
      <path class="cls-6" d="m2078,1893.88c-3.27-53.36-85.11-25.21-84.45-74.31h-72.92l5.68,74.31h151.69Z"/>
      <polygon class="cls-9" points="1691.13 1256.19 1669.06 1828.54 1762.35 1828.54 1857.2 1257.55 1691.13 1256.19"/>
      <polygon class="cls-9" points="1812.6 1257.28 1910.68 1828.54 2002.86 1828.54 1970.64 1256.19 1812.6 1257.28"/>
      <path class="cls-3" d="m1585.58,802.33l65.62-16.3,45.09,137.3,58.21,97.05s33.32-19.56,81.86-17.75,82.95,17.75,82.95,17.75l76.52-97.92,31.08-129.1,71.06,14.33s-21.47,111.03-34.25,151.47c-12.79,40.43-111.58,172.22-111.58,172.22l37.36,195.28c-104.9,12.49-209.89,12.47-314.97,0l29.17-191.03s-69.23-153.23-81.66-186.29c-12.44-33.05-36.45-147.01-36.45-147.01h-.01Z"/>
      <path class="cls-6" d="m1834.4,1024.59c33.71,1.22,45.92-16.33,45.94-16.35-12.48-2.72-27.41-4.99-43.99-5.6-14.85-.55-28.26.9-39.74,3.17.02.08,4.13,17.57,37.78,18.79h.01Z"/>
      <g>
        <path class="cls-7" d="m1880.35,946.32l-11.45,59.71c-6.59,12.84-60.42,11.18-61.06-2.07l9.17-48,63.34-9.63h0Z"/>
        <g>
          <path class="cls-7" d="m1896.56,915.44c6.94-2.69,15.66.71,18.93,7.39,3.28,6.68.64,15.66-5.74,19.5-6.37,3.84-15.55,1.98-19.92-4.04-9.25,18.06-28.43,30.6-48.68,31.89-20.25,1.28-40.84-8.73-52.35-25.44-11.51-16.7-13.55-39.5-5.21-57.99,8.34-18.49,26.76-32.05,46.89-34.54,17.22-2.13,35.27,3.72,47.95,15.56,12.69,11.84,19.06,30.35,18.12,47.68h.01Z"/>
          <path class="cls-6" d="m1896.56,915.43c.05,3.1-1.56,6.96-2.92,9.75-1.34,2.77-4.52,4.92-7.49,4.05-3.61-1.08-4.76-5.8-3.92-9.48.85-3.68,3.01-6.98,3.61-10.7.73-4.43-.87-9.04-3.62-12.59-2.75-3.56-6.55-6.16-10.56-8.21-7.85-4-16.54-6.01-25.15-7.91-8.61-1.9-17.32-3.74-25.31-7.47-5.86-2.73-11.36-6.59-15.36-11.61-1.46-1.82-2.71-3.79-3.72-5.92-3.75-7.97-3.29-18.25,2.57-24.83,3.31-3.72,8.73-6.05,13.37-4.26,4.66,1.79,6.97,6.83,10.13,10.69,5.07,6.23,12.81,9.66,20.52,11.93s15.73,3.6,23.14,6.69c11.22,4.68,20.69,13.42,26.24,24.23s7.29,22.93,4.55,34.77c-1.17-.03-3.22-.12-6.09.89v-.02Z"/>
          <path class="cls-5" d="m1900.39,935.54c-.67,0-1.39-.08-2.15-.24l.42-1.96c3.89.83,5.96-1.15,6.55-3.09.61-2.02-.13-4.75-3.22-5.99l.74-1.86c4.07,1.63,5.29,5.48,4.39,8.43-.76,2.51-3.09,4.7-6.73,4.7h0Z"/>
        </g>
        <path class="cls-6" d="m1838.63,912.95c-.13,0-.26-.02-.39-.05-.8-.21-1.28-1.04-1.06-1.84l2.47-9.27c.21-.8,1.04-1.28,1.84-1.06.8.21,1.28,1.04,1.06,1.84l-2.47,9.27c-.18.67-.79,1.11-1.45,1.11Z"/>
        <path class="cls-6" d="m1803.59,904.9c-.12,0-.24-.02-.37-.05-.8-.2-1.29-1.02-1.09-1.82l2.21-8.76c.2-.8,1.02-1.29,1.82-1.09.8.2,1.29,1.02,1.09,1.82l-2.21,8.76c-.17.68-.78,1.13-1.45,1.13h0Z"/>
        <path class="cls-6" d="m1811.95,930.14c-.38,0-.77-.15-1.06-.44-1.36-1.36-2.03-3.01-2-4.88.08-4.8,4.94-9.43,5.15-9.62.6-.57,1.55-.54,2.12.06s.54,1.55-.06,2.12c-1.15,1.09-4.16,4.57-4.21,7.49-.02,1.05.35,1.94,1.13,2.71.58.59.58,1.54,0,2.12-.29.29-.68.44-1.06.44h-.01Z"/>
        <path class="cls-6" d="m1832.96,948.39c-.82,0-1.49-.66-1.5-1.48,0-.83.65-1.5,1.48-1.52h0c.27,0,6.64-.19,10.73-6.14.47-.68,1.4-.86,2.09-.39.68.47.86,1.4.39,2.09-4.99,7.26-12.83,7.44-13.16,7.44h-.03Z"/>
      </g>
      <path class="cls-6" d="m1685.16,1412.49c-.6,0-1.16-.36-1.4-.95-.3-.77.08-1.64.85-1.94.48-.19,48.39-19.69,57.87-76.75.14-.82.91-1.37,1.73-1.23s1.37.91,1.23,1.73c-5.1,30.71-21.05,50.56-33.53,61.8-13.53,12.19-25.69,17.04-26.2,17.25-.18.07-.37.1-.55.1h0Z"/>
      <path class="cls-6" d="m1979.43,1413.84c-.25,0-.5-.06-.74-.19-.4-.22-39.99-23.12-55.31-80.49-.21-.8.26-1.62,1.06-1.84.8-.21,1.62.26,1.84,1.06,14.99,56.16,53.49,78.43,53.88,78.65.72.41.98,1.32.57,2.04-.28.49-.78.76-1.31.76h.01Z"/>
      <path class="cls-6" d="m1836.02,1395.18c-.72,0-1.35-.52-1.48-1.25l-7.61-44.31c-.14-.82.41-1.59,1.22-1.73.81-.14,1.59.41,1.73,1.22l7.61,44.31c.14.82-.41,1.59-1.22,1.73-.09.01-.17.02-.26.02h.01Z"/>
      <path class="cls-6" d="m1764.66,1812.8h-94.45c-.83,0-1.5-.67-1.5-1.5s.67-1.5,1.5-1.5h94.45c.83,0,1.5.67,1.5,1.5s-.67,1.5-1.5,1.5Z"/>
      <path class="cls-6" d="m2001.41,1812.8h-92.99c-.83,0-1.5-.67-1.5-1.5s.67-1.5,1.5-1.5h92.99c.83,0,1.5.67,1.5,1.5s-.67,1.5-1.5,1.5Z"/>
    </g>
    <g>
      <polygon class="cls-7" points="1117.5 1759.61 1104.19 1791.83 1121.85 1806.76 1144.16 1811.97 1168.55 1779.01 1117.5 1759.61"/>
      <path class="cls-5" d="m1104.19,1791.83l-30.09,41.87,40.54,20.42,5.8-7.82,9.81,15.69,60.65,30.55c6.86-35.49-54.41-53.6-46.74-80.58l-39.97-20.14h0Z"/>
      <polygon class="cls-7" points="1394.11 1808.19 1396.72 1842.95 1419.21 1848.33 1441.47 1842.95 1448.43 1802.54 1394.11 1808.19"/>
      <path class="cls-6" d="m1218.94,1338.28l1.96,247.95-153.28,175,153.91,60.3s78.67-165.16,93.16-211.71c14.49-46.55,56.94-271.72,56.94-271.72l-152.7.17h.01Z"/>
      <polygon class="cls-6" points="1332.34 1354.46 1381.4 1607.84 1315.1 1821.95 1488.69 1821.95 1474.67 1600.29 1476.83 1345.84 1332.34 1354.46"/>
      <g>
        <path class="cls-7" d="m1481.48,884.95c-19.5-18.97-37.26,8.97-37.26,8.97-6.2-17.61-15.65-20.38-18.07-17.22-2.42,3.16,1.22,5.35,4.81,14.41,2.93,7.39,8.45,27.3,10.41,34.68l-6.82,27.36,35.96,4.91,1.11-24.98c.1-2.34,1.14-4.54,2.9-6.1,10.8-9.55,24.28-25.18,6.97-42.03h0Z"/>
        <path class="cls-5" d="m1477.21,916.81c-.93,0-1.86-.28-2.8-.87-1.7-1.06-2.21-2.51-2.19-3.85-1.68.7-3.82.89-5.73-.71-1.7-1.42-2.2-3.16-2.16-4.67-1.67.82-3.79,1.17-5.64-.28-2.5-1.96-2.52-4.84-1.92-7.01-1.87.38-4.61.5-6.44-1.27-1.31-1.27-1.95-2.91-1.86-4.74.18-3.65,3.28-8.02,8.7-12.32.43-.34,1.06-.27,1.4.16s.27,1.06-.16,1.4c-4.9,3.87-7.8,7.83-7.95,10.85-.06,1.26.36,2.34,1.26,3.2,1.68,1.63,5.17.74,6.37.26l2.65-1.06-1.41,2.48c-.09.17-2.31,4.19.6,6.46,2.25,1.76,5.25-1.14,5.28-1.17l4.64-4.56-3.06,5.75c-.06.11-1.47,2.91.99,4.97,2.41,2.02,5.29-.59,5.41-.71l5.12-4.74-3.58,5.98c-.15.25-1.4,2.53.74,3.85,2.18,1.35,4.43.65,10.74-6.89.35-.42.98-.48,1.41-.13.42.35.48.98.13,1.41-4.35,5.2-7.49,8.18-10.53,8.18v.03Z"/>
        <path class="cls-5" d="m1473.86,910.88c-.25,0-.5-.09-.7-.29-.39-.39-.4-1.02-.02-1.41l11.56-11.81c.39-.39,1.02-.4,1.41-.02.39.39.4,1.02.02,1.41l-11.56,11.81c-.2.2-.46.3-.71.3h0Z"/>
        <path class="cls-5" d="m1465.89,905.41c-.25,0-.5-.09-.69-.28-.4-.38-.41-1.01-.03-1.41l14.8-15.46c.38-.4,1.01-.41,1.41-.03.4.38.41,1.01.03,1.41l-14.8,15.46c-.2.2-.46.31-.72.31h0Z"/>
        <path class="cls-5" d="m1458.44,898.91c-.25,0-.5-.09-.7-.28-.4-.39-.4-1.02-.02-1.41l14.38-14.76c.39-.4,1.02-.4,1.41-.02.4.39.4,1.02.02,1.41l-14.38,14.76c-.2.2-.46.3-.72.3h.01Z"/>
      </g>
      <polygon class="cls-10" points="1372.98 1108.38 1403.97 1052.39 1412.51 937.2 1513.22 960.57 1477.55 1080.55 1425.13 1212.74 1372.98 1108.38"/>
      <path class="cls-7" d="m1168.77,1179.15c-.33-7.63,1.6-25.75,2.2-33.68.72-9.71,3.07-11.9-.67-13.29-4.9-1.82-7.82,6.54-9.83,20.79-.18,1.25-1.96,1.34-2.25.11-3.28-13.92-11.03-49.03-16.55-47.84-5.76,1.25-.68,19.67,3.41,37.04.2.84-.35,1.67-1.2,1.85h-.02c-.48.11-.98-.11-1.21-.54-9.54-17.83-17.19-36.51-22.69-33.39-4.8,2.72,4.92,20.86,13.46,37.25.26.5.09,1.12-.39,1.42,0,0-.01,0-.02.01-.46.28-1.07.19-1.41-.23-11.83-14.41-21.54-27.53-26.02-23.63-3.93,3.42,6.72,16.2,17.63,29.52.6.74.69,1.77.22,2.59v.03c-.36.62-1.2.73-1.71.24-11.1-10.66-17.03-15.76-19.86-12.53-3.24,3.7,22.54,28.65,22.54,28.65,5.49,11.3,17.66,21.59,17.66,21.59l8.51,23.52,32.86-15.4-14.66-24.08h0Z"/>
      <path class="cls-10" d="m1372.98,1108.38l-68.26,3.22-56.56,24.71-47.24,261.74c86.87,12.28,242.18-6.54,300.15-46.77l-128.09-242.9h0Z"/>
      <g>
        <path class="cls-6" d="m1244.71,982.38c-62.46,21.91-12.48,91.93-28.98,138.2,19.14,7.67,125.78-13.41,169.01-49.94,0,0-15.48-92.54-71.06-108.91-53.11-15.64-68.97,20.65-68.97,20.65Z"/>
        <path class="cls-7" d="m1262.62,1069.35l20.55,54.11c7.83,10.36,54.45-.9,52.97-12.74l-15.86-42.66-57.66,1.3h0Z"/>
        <g>
          <path class="cls-7" d="m1243.45,1044.49c-6.57-1.31-13.77,3.06-15.64,9.49-1.87,6.43,1.87,13.98,8.12,16.4s14.09-.66,17.03-6.68c11.01,14.57,29.96,22.72,48.11,20.71s34.85-14.09,42.47-30.69c7.61-16.6,5.88-37.12-4.39-52.22s-28.7-24.26-46.94-23.35c-15.6.78-30.69,8.78-40.1,21.24s-12.18,29.87-8.66,45.09h0Z"/>
          <path class="cls-5" d="m1241.87,1063.12c-2.62,0-4.56-1.45-5.49-3.29-1.28-2.52-.79-6.18,2.61-8.29l1.05,1.7c-2.49,1.54-2.72,4.03-1.89,5.68.81,1.59,2.91,2.99,6.16,1.68l.75,1.86c-1.15.46-2.23.67-3.21.67h.02Z"/>
        </g>
        <path class="cls-6" d="m1320.52,1044.56c-.53,0-1.05-.29-1.32-.79-.39-.73-.12-1.64.61-2.03,1.17-.63,1.83-1.21,1.92-1.67.21-1.08-1.81-3.51-4.36-6.58-1.09-1.31-2.33-2.8-3.69-4.53-.51-.65-.4-1.59.25-2.11.65-.51,1.59-.4,2.11.25,1.34,1.7,2.57,3.17,3.64,4.47,3.53,4.25,5.48,6.59,5,9.06-.36,1.86-2.03,2.97-3.44,3.74-.23.12-.47.18-.71.18h0Z"/>
        <path class="cls-6" d="m1303.25,1064.08c-2.49,0-7.24-.61-11.25-4.71-.58-.59-.57-1.54.02-2.12s1.54-.57,2.12.02c4.49,4.58,10.1,3.77,10.34,3.73.81-.13,1.58.43,1.71,1.25s-.42,1.58-1.24,1.72c-.08.01-.72.11-1.7.11Z"/>
        <path class="cls-6" d="m1342.87,1004.05c-21.47,2.03-44.47-3-70.25-9.47-2.02,18.4-12.63,40.93-29.17,49.9l-12.74-23.57,31.9-42.82,49.82-2.05,26.21,20.8,4.22,7.2h.01Z"/>
      </g>
      <path class="cls-6" d="m1286.16,1034.23c-.59,0-1.14-.35-1.38-.92-.57-1.35-.58-2.85-.02-4.21.55-1.36,1.61-2.42,2.96-2.99,2.79-1.17,6.02.14,7.2,2.94.32.76-.04,1.64-.8,1.96-.76.32-1.64-.04-1.96-.8-.53-1.27-2-1.87-3.27-1.33-.62.26-1.09.74-1.35,1.36-.25.62-.25,1.3.01,1.91.32.76-.04,1.64-.8,1.96-.19.08-.39.12-.58.12h-.01Z"/>
      <path class="cls-6" d="m1320.95,1019.59c-.59,0-1.14-.35-1.38-.92-1.18-2.79.14-6.03,2.94-7.2,2.8-1.18,6.03.14,7.2,2.94.32.76-.04,1.64-.8,1.96s-1.64-.04-1.96-.8c-.53-1.27-2-1.87-3.27-1.33-1.27.53-1.87,2-1.33,3.27.32.76-.04,1.64-.8,1.96-.19.08-.39.12-.58.12h-.02Z"/>
      <path class="cls-10" d="m1214.08,1164.15l-14.6,39.11-7.41-23.61-89.96,46s57.46,95.01,87.46,99.49c34.34,5.13,35.35-17.27,73.05-90.06l-14.46-98.78-13.17,5.76c-9.67,4.23-17.22,12.19-20.91,22.08h0Z"/>
      <path class="cls-6" d="m1217.84,1259.25c-.42,0-.81-.26-.95-.68l-18.36-54.99c-.17-.52.11-1.09.63-1.26.52-.18,1.09.11,1.27.63l18.36,54.99c.17.52-.11,1.09-.63,1.26-.1.04-.21.05-.32.05h0Z"/>
      <path class="cls-6" d="m1212.07,1323.5c-.35,0-.69-.18-.87-.51-.27-.48-.1-1.09.38-1.36,10.54-5.99,17.66-20.76,30.59-47.56,5.46-11.31,11.64-24.14,19.56-39.44.25-.49.86-.68,1.35-.43.49.25.68.86.43,1.35-7.91,15.28-14.09,28.09-19.54,39.39-13.1,27.17-20.32,42.13-31.4,48.43-.16.09-.33.13-.49.13h-.01Z"/>
      <path class="cls-6" d="m1426.37,1210.62c-.36,0-.71-.19-.89-.53l-29.4-55.76c-.26-.49-.07-1.09.42-1.35s1.09-.07,1.35.42l29.4,55.76c.26.49.07,1.09-.42,1.35-.15.08-.31.12-.47.12h.01Z"/>
      <path class="cls-5" d="m1396.72,1842.95l-8.04,50.93h45.39l1.66-9.59,15.82,9.59h67.91c-9.84-34.78-72.71-23.39-77.99-50.93h-44.75Z"/>
    </g>
    <path class="cls-4" d="m2165.64,1893.88c3.27-53.36,85.11-25.21,84.45-74.31h56.23l11.01,74.31h-151.69,0Z"/>
    <path class="cls-4" d="m2504.87,1893.88c-20.08-49.55,65.89-59.48,44.1-103.48l50.72-24.27,42.01,62.28-136.83,65.47Z"/>
    <path class="cls-3" d="m2232.42,1317.4s-20.79,240.91-16.22,282.49c4.58,41.58,24.41,221.63,24.41,221.63h75.73l-5.39-224.09,55.96-268.34-134.51-11.69h.02Z"/>
    <path class="cls-3" d="m2328.42,1343.34s52.37,244.84,76.8,279.89,133.35,188,133.35,188l69.53-44.15-115.23-185.83-37.17-263.86-127.27,25.94h-.01Z"/>
    <path class="cls-7" d="m2562.6,1106.89c-.44-8.12-4.35-27.11-5.79-35.45-1.77-10.21-4.47-12.29-.66-14.14,5.01-2.43,8.96,6.13,12.55,21.01.32,1.31,2.21,1.22,2.4-.11,2.04-15.08,6.64-53.07,12.61-52.37,6.23.73,2.75,20.77.2,39.58-.12.91.54,1.73,1.46,1.84h.02c.52.06,1.02-.22,1.23-.7,8.27-19.87,14.45-40.44,20.6-37.7,5.37,2.39-3.06,22.6-10.43,40.84-.23.56.02,1.2.56,1.46h.02c.52.25,1.15.09,1.47-.39,11.05-16.48,19.98-31.38,25.13-27.71,4.51,3.22-5.45,17.85-15.64,33.08-.56.84-.55,1.94.03,2.77l.02.03c.43.62,1.33.66,1.82.08,10.66-12.43,16.41-18.45,19.75-15.31,3.82,3.59-20.92,32.67-20.92,32.67-4.66,12.54-16.49,24.69-16.49,24.69l-6.59,25.79-36.4-12.93,13.06-27.02h0Z"/>
    <path class="cls-8" d="m2385.42,1049.02c-50.92-9.04-100.48,11.47-100.48,11.47l-78.96,277.69s125.68,43.9,275.66,19.64l-12.93-275.59s-36.47-24.9-83.29-33.21Z"/>
    <g>
      <path class="cls-7" d="m2186.6,758.01c22.49-19.95,40.67,11.79,40.67,11.79,7.74-19.11,18.3-21.69,20.81-18.08s-1.62,5.84-6.04,15.65c-3.61,8.01-10.71,29.7-13.25,37.75l6.14,30.54-39.94,3.59.04-27.63c0-2.59-1.03-5.07-2.89-6.87-11.44-11.09-25.52-29.03-5.55-46.74h0Z"/>
      <path class="cls-2" d="m2189.94,793.28c-3.39,0-6.74-3.45-11.36-9.52-.33-.44-.25-1.07.19-1.4s1.07-.25,1.4.19c6.63,8.71,9.12,9.59,11.64,8.18,2.51-1.4,1.21-4.06,1.05-4.36l-3.22-6.11,4.82,4.94c.13.13,3.24,3.22,6.08,1.06,2.89-2.2,1.44-5.43,1.38-5.57l-2.64-5.72,4.28,4.62c.13.14,3.27,3.44,5.9,1.57,3.39-2.42,1.12-7.04,1.02-7.24l-1.28-2.54,2.58,1.17s4.77,2.13,7.16.02c1.06-.93,1.59-2.13,1.58-3.55-.01-3.37-3.02-7.91-8.26-12.46-.42-.36-.46-.99-.1-1.41s1-.46,1.41-.1c5.75,5,8.93,9.95,8.94,13.96,0,2-.77,3.74-2.26,5.06-2.14,1.89-5.22,1.54-7.25,1.01.59,2.41.48,5.65-2.4,7.7-2.13,1.52-4.48.96-6.28-.07,0,1.68-.61,3.62-2.59,5.13-2.21,1.68-4.59,1.31-6.4.41,0,1.49-.59,3.12-2.56,4.21-.97.54-1.91.8-2.85.8l.02.02Z"/>
      <path class="cls-2" d="m2193.75,786.9c-.27,0-.55-.11-.75-.33l-12.15-13.62c-.37-.41-.33-1.04.08-1.41.41-.37,1.04-.33,1.41.08l12.15,13.62c.37.41.33,1.04-.08,1.41-.19.17-.43.25-.67.25h.01Z"/>
      <path class="cls-2" d="m2202.82,781.27c-.28,0-.56-.12-.75-.34l-15.55-17.82c-.36-.42-.32-1.05.1-1.41.41-.36,1.05-.32,1.41.1l15.55,17.82c.36.42.32,1.05-.1,1.41-.19.17-.42.25-.66.25h0Z"/>
      <path class="cls-2" d="m2211.37,774.48c-.28,0-.55-.11-.75-.34l-15.12-17.02c-.37-.41-.33-1.05.08-1.41.41-.37,1.04-.33,1.41.08l15.12,17.02c.37.41.33,1.04-.08,1.41-.19.17-.43.25-.66.25h0Z"/>
    </g>
    <g>
      <path class="cls-7" d="m2435.67,1002.32l-21.65,53.98c-11.36,16.34-62.75,3.58-60.86-9.55l18.49-47.06,64.02,2.63Z"/>
      <g>
        <path class="cls-7" d="m2457.47,975.1c7.32-1.32,15.23,3.69,17.18,10.87,1.94,7.18-2.36,15.49-9.35,18.05s-15.64-1.02-18.78-7.77c-12.53,15.96-33.74,24.62-53.87,22.01-20.12-2.6-38.42-16.37-46.54-34.96-8.11-18.59-5.77-41.36,5.95-57.92s32.38-26.35,52.62-24.96c17.31,1.19,33.91,10.38,44.1,24.42s12.92,33.43,8.69,50.26h0Z"/>
        <path class="cls-2" d="m2458.98,995.72c-1.11,0-2.33-.24-3.65-.8l.78-1.84c3.66,1.55,6.07,0,7.02-1.79.99-1.86.78-4.69-2.01-6.5l1.09-1.68c3.68,2.38,4.14,6.39,2.7,9.11-1.04,1.96-3.14,3.49-5.93,3.49h0Z"/>
      </g>
      <path class="cls-6" d="m2375.89,972.29c-.16,0-.33-.03-.49-.08-2.48-.86-3.32-2.34-3.59-3.42-.75-2.98,1.96-6.03,2.27-6.36.56-.61,1.51-.65,2.12-.09s.65,1.51.09,2.12h0c-.63.7-1.85,2.49-1.57,3.61.14.53.7.98,1.67,1.32.78.27,1.2,1.13.92,1.91-.21.62-.8,1.01-1.42,1.01v-.02Z"/>
      <path class="cls-6" d="m2448.78,924.84c-10.19-14.04-26.79-23.23-44.1-24.42-12.86-.88-25.89,2.75-36.69,9.77,21.52,15.07,46.6,30.11,74.6,45.13,2.68,1.44,3.96,4.59,3,7.49l-7.95,24.1c-.67,2.02.33,4.21,2.28,5.04h0c1.93.82,4.14.04,5.17-1.79,3.61-6.43,7.73-12.34,12.38-15.05,4.23-16.83,1.51-36.22-8.69-50.26h0Z"/>
      <path class="cls-6" d="m2371.93,944.15c-.25,0-.5-.06-.73-.19-.72-.4-.99-1.32-.58-2.04.67-1.2.24-2.73-.97-3.4-.58-.33-1.26-.4-1.9-.22-.64.18-1.17.61-1.5,1.19-.4.72-1.32.98-2.04.58-.72-.4-.99-1.32-.58-2.04.71-1.28,1.88-2.21,3.3-2.62,1.41-.4,2.9-.23,4.18.48,2.65,1.47,3.61,4.83,2.13,7.48-.27.49-.79.77-1.31.77h0Z"/>
      <path class="cls-6" d="m2404.92,962.49c-.25,0-.5-.06-.73-.19-.72-.4-.99-1.32-.58-2.04.67-1.2.24-2.73-.97-3.4-1.2-.67-2.73-.24-3.4.97-.4.72-1.32.98-2.04.58-.72-.4-.99-1.32-.58-2.04,1.47-2.65,4.83-3.61,7.48-2.13,2.65,1.47,3.61,4.83,2.13,7.48-.27.49-.79.77-1.31.77Z"/>
      <path class="cls-6" d="m2377.16,997.23c-.44,0-.89-.03-1.34-.1-5.09-.73-8.64-5.46-7.91-10.55.12-.82.87-1.39,1.7-1.27.82.12,1.39.88,1.27,1.7-.49,3.45,1.91,6.66,5.37,7.16,1.67.24,3.34-.19,4.69-1.2s2.23-2.49,2.46-4.16c.12-.82.87-1.39,1.7-1.27.82.12,1.39.88,1.27,1.7-.35,2.47-1.64,4.65-3.63,6.14-1.63,1.22-3.57,1.87-5.57,1.87v-.02Z"/>
    </g>
    <polygon class="cls-1" points="2418.6 1044.88 2379 1062 2358.5 1033.16 2342.96 1047.36 2353.78 1087.62 2376.36 1071.37 2388.7 1095.1 2425.71 1060.49 2418.6 1044.88"/>
    <path class="cls-3" d="m2306.86,1058.18l-47.63-109.64-21.87-129.09-52.71,6.59s1.88,122.39,9.93,146.36c8.05,23.96,67.36,196.19,67.36,196.19l44.93-110.41h-.01Z"/>
    <path class="cls-3" d="m2459.39,1193.94s29.86,87.66,61.93,85.52c32.07-2.14,74.12-146.1,74.12-146.1l-44.9-16.39-27.08,56.3s-15.05-63.89-54.75-91.05l-9.32,111.72h0Z"/>
    <path class="cls-6" d="m2451.02,1436.86c-.11,0-.23-.02-.34-.06-44.35-16.03-52.09-71.09-52.16-71.64-.07-.55.31-1.05.86-1.12.55-.08,1.05.31,1.12.86.07.54,7.67,54.41,50.86,70.02.52.19.79.76.6,1.28-.15.41-.53.66-.94.66Z"/>
    <path class="cls-6" d="m2223.92,1425.71c-.22,0-.44-.07-.62-.22-.43-.34-.5-.97-.16-1.41,15.25-19.14,23.24-37.9,27.25-50.27,4.35-13.41,5.09-22.41,5.1-22.5.04-.55.54-.96,1.08-.92.55.04.96.52.92,1.08-.03.36-3.17,36.72-32.78,73.87-.2.25-.49.38-.78.38h0Z"/>
    <path class="cls-6" d="m2593.53,1777.34c-.33,0-.66-.17-.85-.47l-120.05-191.5-.03-.21-33.6-222.06c-.08-.55.29-1.06.84-1.14.55-.08,1.06.29,1.14.84l33.57,221.86,119.83,191.15c.29.47.15,1.08-.32,1.38-.17.1-.35.15-.53.15h0Z"/>
    <path class="cls-6" d="m2531.59,1802.43c-.31,0-.62-.14-.81-.42-.32-.45-.22-1.07.23-1.4l67.65-48.63c.45-.33,1.07-.22,1.4.23.32.45.22,1.07-.23,1.4l-67.65,48.63c-.18.13-.38.19-.58.19h-.01Z"/>
    <path class="cls-6" d="m2239,1807.82c-.55,0-.99-.44-1-.99,0-.55.43-1.01.99-1.01l76.98-.98h.01c.55,0,.99.44,1,.99,0,.55-.43,1.01-.99,1.01l-76.98.98h-.01Z"/>
    <path class="cls-3" d="m2086.34,1280.78c-1.02,0-2.05-.39-2.83-1.17-1.56-1.56-1.56-4.09,0-5.66l59.39-59.39c1.56-1.56,4.09-1.56,5.66,0,1.56,1.56,1.56,4.09,0,5.66l-59.39,59.39c-.78.78-1.8,1.17-2.83,1.17h0Z"/>
    <path class="cls-3" d="m977.36,1458.4c-1.02,0-2.05-.39-2.83-1.17-1.56-1.56-1.56-4.09,0-5.66l59.39-59.39c1.56-1.56,4.09-1.56,5.66,0,1.56,1.56,1.56,4.09,0,5.66l-59.39,59.39c-.78.78-1.8,1.17-2.83,1.17Z"/>
    <path class="cls-3" d="m2684.45,917.69c-13.91,0-25.23-11.32-25.23-25.23s11.32-25.23,25.23-25.23,25.23,11.32,25.23,25.23-11.32,25.23-25.23,25.23Zm0-42.46c-9.5,0-17.23,7.73-17.23,17.23s7.73,17.23,17.23,17.23,17.23-7.73,17.23-17.23-7.73-17.23-17.23-17.23Z"/>
    <path class="cls-3" d="m1012.05,1012.34c-13.91,0-25.23-11.32-25.23-25.23s11.32-25.23,25.23-25.23,25.23,11.32,25.23,25.23-11.32,25.23-25.23,25.23Zm0-42.46c-9.5,0-17.23,7.73-17.23,17.23s7.73,17.23,17.23,17.23,17.23-7.73,17.23-17.23-7.73-17.23-17.23-17.23Z"/>
    <path class="cls-3" d="m1230.92,827.04c-24.49,0-44.41-19.92-44.41-44.41,0-2.21,1.79-4,4-4s4,1.79,4,4c0,20.08,16.34,36.41,36.41,36.41,2.21,0,4,1.79,4,4s-1.79,4-4,4Z"/>
    <path class="cls-3" d="m2425.63,803.3c-24.49,0-44.41-19.92-44.41-44.41,0-2.21,1.79-4,4-4s4,1.79,4,4c0,20.08,16.34,36.41,36.41,36.41,2.21,0,4,1.79,4,4s-1.79,4-4,4Z"/>
    <path class="cls-3" d="m1591.96,1242.45c-24.49,0-44.41-19.92-44.41-44.41,0-2.21,1.79-4,4-4s4,1.79,4,4c0,20.08,16.34,36.41,36.41,36.41,2.21,0,4,1.79,4,4s-1.79,4-4,4Z"/>
    <path class="cls-3" d="m2584.14,1443.99c-2.05,0-3.79-1.56-3.98-3.64-.2-2.2,1.43-4.14,3.63-4.34l55.69-4.98,4.98-55.69c.17-1.93,1.7-3.46,3.63-3.63l55.69-4.98,4.98-55.69c.17-1.93,1.7-3.46,3.63-3.63l59.02-5.28c2.2-.2,4.14,1.43,4.34,3.63s-1.43,4.14-3.63,4.34l-55.69,4.98-4.98,55.69c-.17,1.93-1.7,3.45-3.63,3.63l-55.69,4.98-4.98,55.69c-.17,1.93-1.7,3.46-3.63,3.63l-59.02,5.28c-.12.01-.24.02-.36.02h0Z"/>
    <path class="cls-3" d="m1886.6,777.69c-2.05,0-3.79-1.57-3.98-3.64l-4.98-55.69-55.69-4.98c-1.93-.17-3.46-1.7-3.63-3.63l-5.28-59.02c-.2-2.2,1.43-4.14,3.63-4.34,2.19-.2,4.14,1.43,4.34,3.63l4.98,55.69,55.69,4.98c1.93.17,3.46,1.7,3.63,3.63l5.28,59.02c.2,2.2-1.43,4.14-3.63,4.34-.12.01-.24.02-.36.02h0Z"/>
    <path class="cls-6" d="m2758.53,1895.38H927.97c-.83,0-1.5-.67-1.5-1.5s.67-1.5,1.5-1.5h1830.57c.83,0,1.5.67,1.5,1.5s-.67,1.5-1.5,1.5h0Z"/>
  </g>
</svg>