<?xml version="1.0" encoding="UTF-8"?>
<svg id="Layer_1" data-name="Layer 1" xmlns="http://www.w3.org/2000/svg" xmlns:xlink="http://www.w3.org/1999/xlink" viewBox="0 0 3232.29 2000">
  <defs>
    <style>
      .cls-1 {
        clip-path: url(#clippath-2);
      }

      .cls-1, .cls-2, .cls-3 {
        fill: none;
      }

      .cls-4 {
        fill: #fff;
      }

      .cls-5, .cls-6 {
        fill: #cce6ff;
      }

      .cls-7 {
        fill: #e6515c;
      }

      .cls-8 {
        fill: #f4f7fd;
      }

      .cls-9 {
        fill: #ffc0b1;
      }

      .cls-10 {
        fill: #c7b299;
      }

      .cls-11 {
        fill: #f9dec1;
      }

      .cls-12 {
        fill: #3c94f8;
      }

      .cls-13 {
        fill: #0c203f;
      }

      .cls-14 {
        fill: #102a54;
      }

      .cls-2 {
        clip-path: url(#clippath);
      }

      .cls-6 {
        opacity: .51;
      }

      .cls-3 {
        clip-path: url(#clippath-1);
      }

      .cls-15 {
        fill: #80c0ff;
      }
    </style>
    <clipPath id="clippath">
      <path class="cls-8" d="m1416.94,396.33h588.01v358.84c0,9.51-7.72,17.23-17.23,17.23h-553.55c-9.51,0-17.23-7.72-17.23-17.23v-358.84h0Z"/>
    </clipPath>
    <clipPath id="clippath-1">
      <path class="cls-14" d="m1686.1,696.93l-109.29,26.7c-5.95,1.45-11.96-2.19-13.41-8.14l-33.84-138.49c-1.45-5.95,2.19-11.96,8.14-13.41l109.29-26.7c5.95-1.45,11.96,2.19,13.41,8.14l33.84,138.49c1.45,5.95-2.19,11.96-8.14,13.41Z"/>
    </clipPath>
    <clipPath id="clippath-2">
      <rect class="cls-11" x="1049.3" y="1068.25" width="278.16" height="183.73"/>
    </clipPath>
  </defs>
  <rect class="cls-4" width="3232.29" height="2000"/>
  <g>
    <path class="cls-8" d="m2143.14,295.96c-54.88,70.06-53.8,197.85,16.43,258.32,53.99,46.48,135.2,43.91,195.76,79.92,59.95,35.64,111.47,81.98,186.08,59.47,71.51-21.58,107.85-89.15,87.48-160.93-38.77-136.58-176.79-249.94-309.37-286.81-64.55-17.95-133.18-5.09-176.37,50.05Z"/>
    <path class="cls-8" d="m959.39,254.75c-52.74,45.96-92.15,105.77-108.6,181.2-6.85,31.4-9.19,64.38-1.29,95.52,28.11,110.78,151.61,91.67,239.53,86.59,50.46-2.92,106.01-7.19,153.51,13.85,63.56,28.16,66.25,98.22,117.02,137.22,26.67,20.48,63.23,23.13,96.45,17.87,83.58-13.26,146.89-75.72,185.16-148.38,55.07-104.57,94.42-254.72,27.48-362.59-76.68-123.58-238.32-151.89-372.89-144.15-119.15,6.85-246.94,44.94-336.38,122.88Z"/>
    <path class="cls-8" d="m725.52,576.72c41.72,102.26,1.67,243.23-69.97,316.08-27.71,28.18-60.69,50.52-93.43,72.65-68.91,46.6-164.85,143.41-249.55,154.46-78.78,10.28-124.06-62.76-136.4-130.24-26.44-144.61,37.22-292.53,138.43-394.42,86.77-87.35,267.07-190.11,374.91-75.22,15.67,16.69,27.53,35.88,36.01,56.68Z"/>
  </g>
  <path class="cls-8" d="m302.3,1860.36s2451.92,0,2452.35,0c35.23-.67,64.19-236.64,66.72-264.92,17.79-198.27-11.61-416.99-123.52-585.79-104.21-157.19-295.35-238.55-479.61-243.57-322.14-8.78-564.07,276.73-787.07,470.65-84.08,73.12-177.15,150.02-288.43,155.63-110.71,5.57-210.91-60.94-318.35-88.24-153.73-39.05-326.55,8.9-438.18,121.58-111.63,112.68-124.41,281.3-83.92,434.66Z"/>
  <g>
    <path class="cls-15" d="m2374.92,1061.37l-5-.21.14-3.22-.89-.48,1.9-3.52,4.4,2.38-.57,1.05h.19s-.17,4-.17,4Zm-9.99-.42l-5-.21.17-4,5,.21-.17,4Zm-9.99-.42l-5-.21.17-4,5,.21-.17,4Zm-9.99-.42l-5-.21.17-4,5,.21-.17,4Zm-9.99-.42l-5-.21.17-4,5,.21-.17,4Zm-9.99-.42l-5-.21.17-4,5,.21-.17,4Zm-9.99-.42l-5-.21.17-4,5,.21-.17,4Zm-9.99-.42l-5-.21.17-4,5,.21-.17,4Zm-9.99-.42l-5-.21.17-4,5,.21-.17,4Zm-9.99-.42l-5-.21.17-4,5,.21-.17,4Zm-9.99-.42l-5-.21.17-4,5,.21-.17,4Zm-9.99-.42l-5-.21.17-4,5,.21-.17,4Zm-9.99-.42l-5-.21.17-4,5,.21-.17,4Zm-9.99-.42l-5-.21.17-4,5,.21-.17,4Zm-9.99-.42l-5-.21.17-4,5,.21-.17,4Zm129.72-.42l-4.4-2.38,1.9-3.52,4.4,2.38-1.9,3.52Zm-139.71,0l-5-.21.17-4,5,.21-.17,4Zm-9.99-.42l-5-.21.17-4,5,.21-.17,4Zm-9.99-.42l-5-.21.17-4,5,.21-.17,4Zm-9.99-.42l-5-.21.17-4,5,.21-.17,4Zm-9.99-.42l-5-.21.17-4,5,.21-.17,4Zm-9.99-.42l-5-.21.17-4,5,.21-.17,4Zm-9.99-.42l-5-.21.17-4,5,.21-.17,4Zm-9.99-.42l-5-.21.17-4,5,.21-.17,4Zm-9.99-.42l-5-.21.17-4,5,.21-.17,4Zm-9.99-.42l-5-.21.17-4,5,.21-.17,4Zm-9.99-.42l-5-.21.17-4,5,.21-.17,4Zm-9.99-.42l-5-.21.17-4,5,.21-.17,4Zm240.82-.14l-4.4-2.38,1.9-3.52,4.4,2.38-1.9,3.52Zm-250.81-.28l-5-.21.17-4,5,.21-.17,4Zm-9.99-.42l-5-.21.17-4,5,.21-.17,4Zm-9.99-.42l-5-.21.17-4,5,.21-.17,4Zm-9.99-.42l-5-.21.17-4,5,.21-.17,4Zm-9.99-.42l-5-.21.17-4,5,.21-.17,4Zm-9.99-.42l-5-.21.17-4,5,.21-.17,4Zm-9.99-.42l-5-.21.17-4,5,.21-.17,4Zm-9.99-.42l-5-.21.17-4,5,.21-.17,4Zm-9.99-.42l-5-.21.17-4,5,.21-.17,4Zm-9.99-.42l-5-.21.17-4,5,.21-.17,4Zm-9.99-.42l-5-.21.17-4,5,.21-.17,4Zm341.92-.27l-4.4-2.38,1.9-3.52,4.4,2.38-1.9,3.52Zm-351.91-.15l-5-.21.17-4,5,.21-.17,4Zm-9.99-.42l-5-.21.17-4,5,.21-.17,4Zm-9.99-.42l-5-.21.17-4,5,.21-.17,4Zm-9.99-.42l-5-.21.17-4,5,.21-.17,4Zm-9.99-.42l-5-.21.17-4,5,.21-.17,4Zm-9.99-.42l-5-.21.17-4,5,.21-.17,4Zm-9.99-.42l-5-.21.17-4,5,.21-.17,4Zm-9.99-.42l-5-.21.17-4,5,.21-.17,4Zm-9.99-.42l-5-.21.17-4,5,.21-.17,4Zm-9.99-.42l-5-.21.17-4,5,.21-.17,4Zm-9.99-.42l-5-.21.17-4,5,.21-.17,4Zm443.02-.41l-4.4-2.38,1.9-3.52,4.4,2.38-1.9,3.52Zm-453.01,0l-5-.21.17-4,5,.21-.17,4Zm-9.99-.42l-5-.21.17-4,5,.21-.17,4Zm-9.99-.42l-5-.21.17-4,5,.21-.17,4Zm-9.99-.42l-5-.21.17-4,5,.21-.17,4Zm-9.99-.42l-5-.21.17-4,5,.21-.17,4Zm-9.99-.42l-5-.21.17-4,5,.21-.17,4Zm-9.99-.42l-5-.21.17-4,5,.21-.17,4Zm-9.99-.42l-5-.21.17-4,5,.21-.17,4Zm-9.99-.42l-5-.21.17-4,5,.21-.17,4Zm-9.99-.42l-5-.21.17-4,5,.21-.17,4Zm-9.99-.42l-5-.21.17-4,5,.21-.17,4Zm-9.99-.42l-5-.21.17-4,5,.21-.17,4Zm554.12-.13l-4.4-2.38,1.9-3.52,4.4,2.38-1.9,3.52Zm-564.11-.29l-5-.21.17-4,5,.21-.17,4Zm-9.99-.42l-5-.21.17-4,5,.21-.17,4Zm-9.99-.42l-5-.21.17-4,5,.21-.17,4Zm-9.99-.42l-5-.21.17-4,5,.21-.17,4Zm-9.99-.42l-5-.21.17-4,5,.21-.17,4Zm-9.99-.42l-5-.21.17-4,5,.21-.17,4Zm-9.99-.42l-5-.21.17-4,5,.21-.17,4Zm-9.99-.42l-5-.21.17-4,5,.21-.17,4Zm-9.99-.42l-5-.21.17-4,5,.21-.17,4Zm-9.99-.42l-5-.21.17-4,5,.21-.17,4Zm-9.99-.42l-5-.21.17-4,5,.21-.17,4Zm655.22-.27l-4.4-2.38,1.9-3.52,4.4,2.38-1.9,3.52Zm-665.21-.15l-5-.21.17-4,5,.21-.17,4Zm-9.99-.42l-5-.21.17-4,5,.21-.17,4Zm-9.99-.42l-5-.21.17-4,5,.21-.17,4Zm-9.99-.42l-5-.21.17-4,5,.21-.17,4Zm-9.99-.42l-5-.21.17-4,5,.21-.17,4Zm-9.99-.42l-5-.21.17-4,5,.21-.17,4Zm-9.99-.42l-5-.21.17-4,5,.21-.17,4Zm-9.99-.42l-5-.21.17-4,5,.21-.17,4Zm-9.99-.42l-5-.21.17-4,5,.21-.17,4Zm-9.99-.42l-5-.21.17-4,5,.21-.17,4Zm-9.99-.42l-5-.21.17-4,5,.21-.17,4Zm756.32-.41l-4.4-2.38,1.9-3.52,4.4,2.38-1.9,3.52Zm-766.31-.01l-5-.21.17-4,5,.21-.17,4Zm-9.99-.42l-5-.21.17-4,5,.21-.17,4Zm-9.99-.42l-5-.21.17-4,5,.21-.17,4Zm-9.99-.42l-5-.21.17-4,5,.21-.17,4Zm-9.99-.42l-5-.21.17-4,5,.21-.17,4Zm-9.99-.42l-5-.21.17-4,5,.21-.17,4Zm-9.99-.42l-5-.21.17-4,5,.21-.17,4Zm-9.99-.42l-5-.21.17-4,5,.21-.17,4Zm-9.99-.42l-5-.21.17-4,5,.21-.17,4Zm-9.99-.42l-5-.21.17-4,5,.21-.17,4Zm-9.99-.42l-5-.21.17-4,5,.21-.17,4Zm-9.99-.42l-5-.21.17-4,5,.21-.17,4Zm867.42-.13l-4.4-2.38,1.9-3.52,4.4,2.38-1.9,3.52Zm-877.41-.29l-5-.21.17-4,5,.21-.17,4Zm-9.99-.42l-5-.21.17-4,5,.21-.17,4Zm-9.99-.42l-5-.21.17-4,5,.21-.17,4Zm-9.99-.42l-5-.21.17-4,5,.21-.17,4Zm-9.99-.42l-5-.21.17-4,5,.21-.17,4Zm-9.99-.42l-5-.21.17-4,5,.21-.17,4Zm-9.99-.42l-5-.21.17-4,5,.21-.17,4Zm-9.99-.42l-5-.21.17-4,5,.21-.17,4Zm-9.99-.42l-5-.21.17-4,5,.21-.17,4Zm-9.99-.42l-5-.21.17-4,5,.21-.17,4Zm-9.99-.42l-5-.21.17-4,5,.21-.17,4Zm968.52-.26l-4.4-2.38,1.9-3.52,4.4,2.38-1.9,3.52Zm-978.51-.15l-5-.21.17-4,5,.21-.17,4Zm-9.99-.42l-5-.21.17-4,5,.21-.17,4Zm-9.99-.42l-5-.21.17-4,5,.21-.17,4Zm-9.99-.42l-5-.21.17-4,5,.21-.17,4Zm-9.99-.42l-5-.21.17-4,5,.21-.17,4Zm-9.99-.42l-5-.21.17-4,5,.21-.17,4Zm-9.99-.42l-5-.21.17-4,5,.21-.17,4Zm-9.99-.42l-5-.21.17-4,5,.21-.17,4Zm-9.99-.42l-5-.21.17-4,5,.21-.17,4Zm-9.99-.42l-5-.21.17-4,5,.21-.17,4Zm-9.99-.42l-5-.21.17-4,5,.21-.17,4Zm1069.63-.4l-4.4-2.38,1.9-3.52,4.4,2.38-1.9,3.52Zm-1079.62-.02l-5-.21.17-4,5,.21-.17,4Zm-9.99-.42l-5-.21.17-4,5,.21-.17,4Zm-9.99-.42l-5-.21.17-4,5,.21-.17,4Zm-9.99-.42l-5-.21.17-4,5,.21-.17,4Zm-9.99-.42l-5-.21.17-4,5,.21-.17,4Zm-9.99-.42l-5-.21.17-4,5,.21-.17,4Zm-9.99-.42l-5-.21.17-4,5,.21-.17,4Zm-9.99-.42l-5-.21.17-4,5,.21-.17,4Zm-9.99-.42l-5-.21.17-4,5,.21-.17,4Zm-9.99-.42l-5-.21.17-4,5,.21-.17,4Zm-9.99-.42l-5-.21.17-4,5,.21-.17,4Zm-9.99-.42l-5-.21.17-4,5,.21-.17,4Zm1180.72-.12l-4.4-2.38,1.9-3.52,4.4,2.38-1.9,3.52Zm-1190.71-.3l-5-.21.17-4,5,.21-.17,4Zm-9.99-.42l-5-.21.17-4,5,.21-.17,4Zm-9.99-.42l-5-.21.17-4,5,.21-.17,4Zm-9.99-.42l-5-.21.17-4,5,.21-.17,4Zm-9.99-.42l-5-.21.17-4,5,.21-.17,4Zm-9.99-.42l-5-.21.17-4,5,.21-.17,4Zm-9.99-.42l-5-.21.17-4,5,.21-.17,4Zm-9.99-.42l-5-.21.17-4,5,.21-.17,4Zm-9.99-.42l-5-.21.17-4,5,.21-.17,4Zm-9.99-.42l-5-.21.17-4,5,.21-.17,4Zm-9.99-.42l-5-.21.17-4,5,.21-.17,4Zm1281.83-.26l-4.4-2.38,1.9-3.52,4.4,2.38-1.9,3.52Zm-1291.82-.16l-5-.21.17-4,5,.21-.17,4Zm-9.99-.42l-5-.21.17-4,5,.21-.17,4Zm-9.99-.42l-5-.21.17-4,5,.21-.17,4Zm-9.99-.42l-5-.21.17-4,5,.21-.17,4Zm-9.99-.42l-5-.21.17-4,5,.21-.17,4Zm-9.99-.42l-5-.21.17-4,5,.21-.17,4Zm-9.99-.42l-5-.21.17-4,5,.21-.17,4Zm-9.99-.42l-5-.21.17-4,5,.21-.17,4Zm-9.99-.42l-5-.21.17-4,5,.21-.17,4Zm-9.99-.42l-5-.21.17-4,5,.21-.17,4Zm-9.99-.42l-5-.21.17-4,5,.21-.17,4Zm1382.93-.4l-4.4-2.38,1.9-3.52,4.4,2.38-1.9,3.52Zm-1392.92-.02l-5-.21.17-4,5,.21-.17,4Zm-9.99-.42l-5-.21.17-4,5,.21-.17,4Zm-9.99-.42l-5-.21.17-4,5,.21-.17,4Zm-9.99-.42l-5-.21.17-4,5,.21-.17,4Zm-9.99-.42l-5-.21.17-4,5,.21-.17,4Zm-9.99-.42l-5-.21.17-4,5,.21-.17,4Zm-9.99-.42l-5-.21.17-4,5,.21-.17,4Zm-9.99-.42l-5-.21.17-4,5,.21-.17,4Zm-9.99-.42l-5-.21.17-4,5,.21-.17,4Zm-9.99-.42l-5-.21.17-4,5,.21-.17,4Zm-9.99-.42l-5-.21.17-4,5,.21-.17,4Zm-9.99-.42l-5-.21.17-4,5,.21-.17,4Zm1494.03-.12l-4.4-2.38,1.9-3.52,4.4,2.38-1.9,3.52Zm-1504.02-.3l-5-.21.17-4,5,.21-.17,4Zm-2.87-4.2l-3.41-2.1,2.62-4.26,3.41,2.1-2.62,4.26Zm1498.09-.25l-4.4-2.38,1.9-3.52,4.4,2.38-1.9,3.52Zm-8.8-4.75l-4.4-2.38,1.9-3.52,4.4,2.38-1.9,3.52Zm-1484.05-3.51l-3.41-2.1,2.62-4.26,3.41,2.1-2.62,4.26Zm1475.25-1.24l-4.4-2.38,1.9-3.52,4.4,2.38-1.9,3.52Zm-8.8-4.75l-4.4-2.38,1.9-3.52,4.4,2.38-1.9,3.52Zm-1461.2-2.53l-3.41-2.1,2.62-4.26,3.41,2.1-2.62,4.26Zm1452.4-2.23l-4.4-2.38,1.9-3.52,4.4,2.38-1.9,3.52Zm-8.8-4.75l-4.4-2.38,1.9-3.52,4.4,2.38-1.9,3.52Zm-1438.36-1.54l-3.41-2.1,2.62-4.26,3.41,2.1-2.62,4.26Zm1429.56-3.21l-4.4-2.38,1.9-3.52,4.4,2.38-1.9,3.52Zm-8.8-4.75l-4.4-2.38,1.9-3.52,4.4,2.38-1.9,3.52Zm-1415.51-.55l-3.41-2.1,2.62-4.26,3.41,2.1-2.62,4.26Zm1406.71-4.2l-4.4-2.38,1.9-3.52,4.4,2.38-1.9,3.52Zm-1401.47-4.31l-3.41-2.1,2.62-4.26,3.41,2.1-2.62,4.26Zm1392.67-.44l-4.4-2.38,1.9-3.52,4.4,2.38-1.9,3.52Zm-8.8-4.75l-4.4-2.38,1.9-3.52,4.4,2.38-1.9,3.52Zm-1378.62-3.32l-3.41-2.1,2.62-4.26,3.41,2.1-2.62,4.26Zm1369.82-1.43l-4.4-2.38,1.9-3.52,4.4,2.38-1.9,3.52Zm-8.8-4.75l-4.4-2.38,1.9-3.52,4.4,2.38-1.9,3.52Zm-1355.78-2.34l-3.41-2.1,2.62-4.26,3.41,2.1-2.62,4.26Zm1346.98-2.41l-4.4-2.38,1.9-3.52,4.4,2.38-1.9,3.52Zm-8.8-4.75l-4.4-2.38,1.9-3.52,4.4,2.38-1.9,3.52Zm-1332.93-1.35l-3.41-2.1,2.62-4.26,3.41,2.1-2.62,4.26Zm1324.13-3.4l-4.4-2.38,1.9-3.52,4.4,2.38-1.9,3.52Zm-8.8-4.75l-4.4-2.38,1.9-3.52,4.4,2.38-1.9,3.52Zm-1310.09-.36l-3.41-2.1,2.62-4.26,3.41,2.1-2.62,4.26Zm1301.29-4.39l-4.4-2.38,1.9-3.52,4.4,2.38-1.9,3.52Zm-1296.04-4.12l-3.41-2.1,2.62-4.26,3.41,2.1-2.62,4.26Zm1287.25-.63l-4.4-2.38,1.9-3.52,4.4,2.38-1.9,3.52Zm-8.8-4.75l-4.4-2.38,1.9-3.52,4.4,2.38-1.9,3.52Zm-1273.2-3.13l-3.41-2.1,2.62-4.26,3.41,2.1-2.62,4.26Zm1264.4-1.62l-4.4-2.38,1.9-3.52,4.4,2.38-1.9,3.52Zm-8.8-4.75l-4.4-2.38,1.9-3.52,4.4,2.38-1.9,3.52Zm-1250.36-2.15l-3.41-2.1,2.62-4.26,3.41,2.1-2.62,4.26Zm1241.56-2.61l-4.4-2.38,1.9-3.52,4.4,2.38-1.9,3.52Zm-8.8-4.75l-4.4-2.38,1.9-3.52,4.4,2.38-1.9,3.52Zm-1227.51-1.16l-3.41-2.1,2.62-4.26,3.41,2.1-2.62,4.26Zm1218.71-3.59l-4.4-2.38,1.9-3.52,4.4,2.38-1.9,3.52Zm-8.8-4.75l-4.4-2.38,1.9-3.52,4.4,2.38-1.9,3.52Zm-1204.67-.17l-3.41-2.1,2.62-4.26,3.41,2.1-2.62,4.26Zm1195.87-4.58l-4.4-2.38,1.9-3.52,4.4,2.38-1.9,3.52Zm-1190.62-3.93l-3.41-2.1,2.62-4.26,3.41,2.1-2.62,4.26Zm1181.82-.82l-4.4-2.38,1.9-3.52,4.4,2.38-1.9,3.52Zm-8.8-4.75l-4.4-2.38,1.9-3.52,4.4,2.38-1.9,3.52Zm-1167.78-2.94l-3.41-2.1,2.62-4.26,3.41,2.1-2.62,4.26Zm1158.98-1.81l-4.4-2.38,1.9-3.52,4.4,2.38-1.9,3.52Zm-8.8-4.75l-4.4-2.38,1.9-3.52,4.4,2.38-1.9,3.52Zm-1144.93-1.96l-3.41-2.1,2.62-4.26,3.41,2.1-2.62,4.26Zm1136.13-2.8l-4.4-2.38,1.9-3.52,4.4,2.38-1.9,3.52Zm-8.8-4.75l-4.4-2.38,1.9-3.52,4.4,2.38-1.9,3.52Zm-1122.09-.97l-3.41-2.1,2.62-4.26,3.41,2.1-2.62,4.26Zm1113.29-3.78l-4.4-2.38,1.9-3.52,4.4,2.38-1.9,3.52Zm-1108.04-4.73l-3.41-2.1,2.62-4.26,3.41,2.1-2.62,4.26Zm1099.24-.02l-4.4-2.38,1.9-3.52,4.4,2.38-1.9,3.52Zm-8.8-4.75l-4.4-2.38,1.9-3.52,4.4,2.38-1.9,3.52Zm-1085.2-3.74l-3.41-2.1,2.62-4.26,3.41,2.1-2.62,4.26Zm1076.4-1.01l-4.4-2.38,1.9-3.52,4.4,2.38-1.9,3.52Zm-8.8-4.75l-4.4-2.38,1.9-3.52,4.4,2.38-1.9,3.52Zm-1062.35-2.75l-3.41-2.1,2.62-4.26,3.41,2.1-2.62,4.26Zm1053.55-2l-4.4-2.38,1.9-3.52,4.4,2.38-1.9,3.52Zm-8.8-4.75l-4.4-2.38,1.9-3.52,4.4,2.38-1.9,3.52Zm-1039.51-1.77l-3.41-2.1,2.62-4.26,3.41,2.1-2.62,4.26Zm1030.71-2.99l-4.4-2.38,1.9-3.52,4.4,2.38-1.9,3.52Zm-8.8-4.75l-4.4-2.38,1.9-3.52,4.4,2.38-1.9,3.52Zm-1016.66-.78l-3.41-2.1,2.62-4.26,3.41,2.1-2.62,4.26Zm1007.86-3.97l-4.4-2.38,1.9-3.52,4.4,2.38-1.9,3.52Zm-1002.62-4.54l-3.41-2.1,2.62-4.26,3.41,2.1-2.62,4.26Zm993.82-.21l-4.4-2.38,1.9-3.52,4.4,2.38-1.9,3.52Zm-8.8-4.75l-4.4-2.38,1.9-3.52,4.4,2.38-1.9,3.52Zm-979.77-3.55l-3.41-2.1,2.62-4.26,3.41,2.1-2.62,4.26Zm970.97-1.2l-4.4-2.38,1.9-3.52,4.4,2.38-1.9,3.52Zm-8.8-4.75l-4.4-2.38,1.9-3.52,4.4,2.38-1.9,3.52Zm-956.93-2.56l-3.41-2.1,2.62-4.26,3.41,2.1-2.62,4.26Zm948.13-2.19l-4.4-2.38,1.9-3.52,4.4,2.38-1.9,3.52Zm-8.8-4.75l-4.4-2.38,1.9-3.52,4.4,2.38-1.9,3.52Zm-934.08-1.58l-3.41-2.1,2.62-4.26,3.41,2.1-2.62,4.26Zm925.28-3.18l-4.4-2.38,1.9-3.52,4.4,2.38-1.9,3.52Zm-8.8-4.75l-4.4-2.38,1.9-3.52,4.4,2.38-1.9,3.52Zm-911.24-.59l-3.41-2.1,2.62-4.26,3.41,2.1-2.62,4.26Zm902.44-4.16l-4.4-2.38,1.9-3.52,4.4,2.38-1.9,3.52Zm-897.19-4.35l-3.41-2.1,2.62-4.26,3.41,2.1-2.62,4.26Zm888.4-.4l-4.4-2.38,1.9-3.52,4.4,2.38-1.9,3.52Zm-8.8-4.75l-4.4-2.38,1.9-3.52,4.4,2.38-1.9,3.52Zm-874.35-3.36l-3.41-2.1,2.62-4.26,3.41,2.1-2.62,4.26Zm865.55-1.39l-4.4-2.38,1.9-3.52,4.4,2.38-1.9,3.52Zm-8.8-4.75l-4.4-2.38,1.9-3.52,4.4,2.38-1.9,3.52Zm-851.51-2.37l-3.41-2.1,2.62-4.26,3.41,2.1-2.62,4.26Zm842.71-2.38l-4.4-2.38,1.9-3.52,4.4,2.38-1.9,3.52Zm-8.8-4.75l-4.4-2.38,1.9-3.52,4.4,2.38-1.9,3.52Zm-828.66-1.38l-3.41-2.1,2.62-4.26,3.41,2.1-2.62,4.26Zm819.86-3.37l-4.4-2.38,1.9-3.52,4.4,2.38-1.9,3.52Zm-8.8-4.75l-4.4-2.38,1.9-3.52,4.4,2.38-1.9,3.52Zm-805.82-.4l-3.41-2.1,2.62-4.26,3.41,2.1-2.62,4.26Zm797.02-4.35l-4.4-2.38,1.9-3.52,4.4,2.38-1.9,3.52Zm-791.77-4.16l-3.41-2.1,2.62-4.26,3.41,2.1-2.62,4.26Zm782.97-.59l-4.4-2.38,1.9-3.52,4.4,2.38-1.9,3.52Zm-8.8-4.75l-4.4-2.38,1.9-3.52,4.4,2.38-1.9,3.52Zm-768.93-3.17l-3.41-2.1,2.62-4.26,3.41,2.1-2.62,4.26Zm760.13-1.58l-4.4-2.38,1.9-3.52,4.4,2.38-1.9,3.52Zm-8.8-4.75l-4.4-2.38,1.9-3.52,4.4,2.38-1.9,3.52Zm-746.08-2.18l-3.41-2.1,2.62-4.26,3.41,2.1-2.62,4.26Zm737.28-2.57l-4.4-2.38,1.9-3.52,4.4,2.38-1.9,3.52Zm-8.8-4.75l-4.4-2.38,1.9-3.52,4.4,2.38-1.9,3.52Zm-723.24-1.2l-3.41-2.1,2.62-4.26,3.41,2.1-2.62,4.26Zm714.44-3.56l-4.4-2.38,1.9-3.52,4.4,2.38-1.9,3.52Zm-8.8-4.75l-4.4-2.38,1.9-3.52,4.4,2.38-1.9,3.52Zm-700.39-.21l-3.41-2.1,2.62-4.26,3.41,2.1-2.62,4.26Zm691.59-4.54l-4.4-2.38,1.9-3.52,4.4,2.38-1.9,3.52Zm-686.35-3.97l-3.41-2.1,2.62-4.26,3.41,2.1-2.62,4.26Zm677.55-.78l-4.4-2.38,1.9-3.52,4.4,2.38-1.9,3.52Zm-8.8-4.75l-4.4-2.38,1.9-3.52,4.4,2.38-1.9,3.52Zm-663.5-2.98l-3.41-2.1,2.62-4.26,3.41,2.1-2.62,4.26Zm654.7-1.77l-4.4-2.38,1.9-3.52,4.4,2.38-1.9,3.52Zm-8.8-4.75l-4.4-2.38,1.9-3.52,4.4,2.38-1.9,3.52Zm-640.66-1.99l-3.41-2.1,2.62-4.26,3.41,2.1-2.62,4.26Zm631.86-2.76l-4.4-2.38,1.9-3.52,4.4,2.38-1.9,3.52Zm-8.8-4.75l-4.4-2.38,1.9-3.52,4.4,2.38-1.9,3.52Zm-617.81-1.01l-3.41-2.1,2.62-4.26,3.41,2.1-2.62,4.26Zm609.02-3.75l-4.4-2.38,1.9-3.52,4.4,2.38-1.9,3.52Zm-8.8-4.75l-4.4-2.38,1.9-3.52,4.4,2.38-1.9,3.52Zm-594.97-.02l-3.41-2.1,2.62-4.26,3.41,2.1-2.62,4.26Zm586.17-4.73l-4.4-2.38,1.9-3.52,4.4,2.38-1.9,3.52Zm-580.93-3.78l-3.41-2.1,2.62-4.26,3.41,2.1-2.62,4.26Zm572.13-.97l-4.4-2.38,1.9-3.52,4.4,2.38-1.9,3.52Zm-8.8-4.75l-4.4-2.38,1.9-3.52,4.4,2.38-1.9,3.52Zm-558.08-2.79l-3.41-2.1,2.62-4.26,3.41,2.1-2.62,4.26Zm549.28-1.96l-4.4-2.38,1.9-3.52,4.4,2.38-1.9,3.52Zm-8.8-4.75l-4.4-2.38,1.9-3.52,4.4,2.38-1.9,3.52Zm-535.24-1.8l-3.41-2.1,2.62-4.26,3.41,2.1-2.62,4.26Zm526.44-2.95l-4.4-2.38,1.9-3.52,4.4,2.38-1.9,3.52Zm-8.8-4.75l-4.4-2.38,1.9-3.52,4.4,2.38-1.9,3.52Zm-512.39-.82l-3.41-2.1,2.62-4.26,3.41,2.1-2.62,4.26Zm503.59-3.93l-4.4-2.38,1.9-3.52,4.4,2.38-1.9,3.52Zm-498.35-4.58l-3.41-2.1,2.62-4.26,3.41,2.1-2.62,4.26Zm489.55-.17l-4.4-2.38,1.9-3.52,4.4,2.38-1.9,3.52Zm-8.8-4.75l-4.4-2.38,1.9-3.52,4.4,2.38-1.9,3.52Zm-475.5-3.59l-3.41-2.1,2.62-4.26,3.41,2.1-2.62,4.26Zm466.7-1.16l-4.4-2.38,1.9-3.52,4.4,2.38-1.9,3.52Zm-8.8-4.75l-4.4-2.38,1.9-3.52,4.4,2.38-1.9,3.52Zm-452.66-2.6l-3.41-2.1,2.62-4.26,3.41,2.1-2.62,4.26Zm443.86-2.15l-4.4-2.38,1.9-3.52,4.4,2.38-1.9,3.52Zm-8.8-4.75l-4.4-2.38,1.9-3.52,4.4,2.38-1.9,3.52Zm-429.81-1.61l-3.41-2.1,2.62-4.26,3.41,2.1-2.62,4.26Zm421.01-3.14l-4.4-2.38,1.9-3.52,4.4,2.38-1.9,3.52Zm-8.8-4.75l-4.4-2.38,1.9-3.52,4.4,2.38-1.9,3.52Zm-406.97-.63l-3.41-2.1,2.62-4.26,3.41,2.1-2.62,4.26Zm398.17-4.12l-4.4-2.38,1.9-3.52,4.4,2.38-1.9,3.52Zm-392.92-4.39l-3.41-2.1,2.62-4.26,3.41,2.1-2.62,4.26Zm384.12-.36l-4.4-2.38,1.9-3.52,4.4,2.38-1.9,3.52Zm-8.8-4.75l-4.4-2.38,1.9-3.52,4.4,2.38-1.9,3.52Zm-370.08-3.4l-3.41-2.1,2.62-4.26,3.41,2.1-2.62,4.26Zm361.28-1.35l-4.4-2.38,1.9-3.52,4.4,2.38-1.9,3.52Zm-8.8-4.75l-4.4-2.38,1.9-3.52,4.4,2.38-1.9,3.52Zm-347.23-2.41l-3.41-2.1,2.62-4.26,3.41,2.1-2.62,4.26Zm338.44-2.34l-4.4-2.38,1.9-3.52,4.4,2.38-1.9,3.52Zm-8.8-4.75l-4.4-2.38,1.9-3.52,4.4,2.38-1.9,3.52Zm-324.39-1.42l-3.41-2.1,2.62-4.26,3.41,2.1-2.62,4.26Zm315.59-3.33l-4.4-2.38,1.9-3.52,4.4,2.38-1.9,3.52Zm-8.8-4.75l-4.4-2.38,1.9-3.52,4.4,2.38-1.9,3.52Zm-301.55-.44l-3.41-2.1,2.62-4.26,3.41,2.1-2.62,4.26Zm292.75-4.31l-4.4-2.38,1.9-3.52,4.4,2.38-1.9,3.52Zm-287.5-4.2l-3.41-2.1,2.62-4.26,3.41,2.1-2.62,4.26Zm278.7-.55l-4.4-2.38,1.9-3.52,4.4,2.38-1.9,3.52Zm-8.8-4.75l-4.4-2.38,1.9-3.52,4.4,2.38-1.9,3.52Zm-264.66-3.21l-3.41-2.1,2.62-4.26,3.41,2.1-2.62,4.26Zm255.86-1.54l-4.4-2.38,1.9-3.52,4.4,2.38-1.9,3.52Zm-8.8-4.75l-4.4-2.38,1.9-3.52,4.4,2.38-1.9,3.52Zm-241.81-2.22l-3.41-2.1,2.62-4.26,3.41,2.1-2.62,4.26Zm233.01-2.53l-4.4-2.38,1.9-3.52,4.4,2.38-1.9,3.52Zm-8.8-4.75l-4.4-2.38,1.9-3.52,4.4,2.38-1.9,3.52Zm-218.97-1.23l-3.41-2.1,2.62-4.26,3.41,2.1-2.62,4.26Zm210.17-3.52l-4.4-2.38,1.9-3.52,4.4,2.38-1.9,3.52Zm-8.8-4.75l-4.4-2.38,1.9-3.52,4.4,2.38-1.9,3.52Zm-196.12-.25l-3.41-2.1,2.62-4.26,3.41,2.1-2.62,4.26Zm187.32-4.5l-4.4-2.38,1.9-3.52,4.4,2.38-1.9,3.52Zm-182.08-4.01l-3.41-2.1,2.62-4.26,3.41,2.1-2.62,4.26Zm173.28-.74l-4.4-2.38,1.9-3.52,4.4,2.38-1.9,3.52Zm-8.8-4.75l-4.4-2.38,1.9-3.52,4.4,2.38-1.9,3.52Zm-159.23-3.02l-3.41-2.1,2.62-4.26,3.41,2.1-2.62,4.26Zm150.43-1.73l-4.4-2.38,1.9-3.52,4.4,2.38-1.9,3.52Zm-8.8-4.75l-4.4-2.38,1.9-3.52,4.4,2.38-1.9,3.52Zm-136.39-2.03l-3.41-2.1,2.62-4.26,3.41,2.1-2.62,4.26Zm127.59-2.72l-4.4-2.38,1.9-3.52,4.4,2.38-1.9,3.52Zm-8.8-4.75l-4.4-2.38,1.9-3.52,4.4,2.38-1.9,3.52Zm-113.54-1.04l-3.41-2.1,2.62-4.26,3.41,2.1-2.62,4.26Zm104.75-3.71l-4.4-2.38,1.9-3.52,4.4,2.38-1.9,3.52Zm-8.8-4.75l-4.4-2.38,1.9-3.52,4.4,2.38-1.9,3.52Zm-90.7-.06l-3.41-2.1,2.62-4.26,3.41,2.1-2.62,4.26Zm81.9-4.69l-4.4-2.38,1.9-3.52,4.4,2.38-1.9,3.52Zm-76.65-3.82l-3.41-2.1,2.62-4.26,3.41,2.1-2.62,4.26Zm67.86-.93l-4.4-2.38,1.9-3.52,4.4,2.38-1.9,3.52Zm-8.8-4.75l-4.4-2.38,1.9-3.52,4.4,2.38-1.9,3.52Zm-53.81-2.83l-3.41-2.1,2.62-4.26,3.41,2.1-2.62,4.26Zm45.01-1.92l-4.4-2.38,1.9-3.52,4.4,2.38-1.9,3.52Zm-8.8-4.75l-4.4-2.38,1.9-3.52,4.4,2.38-1.9,3.52Zm-30.97-1.84l-3.41-2.1,2.62-4.26,3.41,2.1-2.62,4.26Zm22.17-2.91l-4.4-2.38,1.9-3.52,4.4,2.38-1.9,3.52Zm-8.8-4.75l-4.4-2.38,1.9-3.52,4.4,2.38-1.9,3.52Zm-8.12-.85l-3.41-2.1,2.62-4.26,3.41,2.1-2.62,4.26Z"/>
    <g>
      <g>
        <circle class="cls-15" cx="2360.76" cy="1024.98" r="268.99"/>
        <g>
          <polygon class="cls-11" points="2360.76 895.29 2212.58 922.37 2212.58 1114.96 2360.76 1154.67 2508.94 1114.96 2508.94 922.37 2360.76 895.29"/>
          <path class="cls-14" d="m2360.76,1155.71c-.58,0-1.04-.47-1.04-1.04v-199c0-.58.47-1.04,1.04-1.04s1.04.47,1.04,1.04v199c0,.58-.47,1.04-1.04,1.04Z"/>
          <polygon class="cls-4" points="2290.28 996.32 2270.43 991.42 2270.43 935.23 2290.28 939.83 2290.28 996.32"/>
          <polygon class="cls-4" points="2425 998.79 2444.86 993.89 2444.36 935.71 2425 940.29 2425 998.79"/>
          <polygon class="cls-4" points="2270.43 935.23 2325.73 924.73 2344.65 929.98 2290.28 939.83 2270.43 935.23"/>
          <polygon class="cls-4" points="2443.58 936.72 2388.28 926.22 2369.36 931.47 2423.72 941.32 2443.58 936.72"/>
          <path class="cls-14" d="m2360.76,956.73l-.23-.05-148.18-33.3c-.56-.13-.91-.68-.79-1.24.13-.56.68-.91,1.24-.79l147.96,33.25,147.95-33.25c.56-.13,1.12.23,1.24.79.13.56-.23,1.12-.79,1.24l-148.41,33.35Z"/>
        </g>
        <path class="cls-14" d="m2375.55,1295.01c-70.03,0-135.88-27.27-185.4-76.79-49.52-49.52-76.79-115.36-76.79-185.4s27.27-135.88,76.79-185.4c49.52-49.52,115.36-76.79,185.4-76.79s135.88,27.27,185.4,76.79c49.52,49.52,76.79,115.36,76.79,185.4s-27.27,135.88-76.79,185.4c-49.52,49.52-115.36,76.79-185.4,76.79Zm0-522.3c-69.48,0-134.8,27.06-183.92,76.18-49.13,49.13-76.18,114.45-76.18,183.92s27.06,134.8,76.18,183.92c49.13,49.13,114.45,76.18,183.92,76.18s134.8-27.06,183.92-76.18c49.13-49.13,76.18-114.45,76.18-183.92s-27.06-134.8-76.18-183.92c-49.13-49.13-114.45-76.18-183.92-76.18Z"/>
      </g>
      <g>
        <path class="cls-7" d="m2344.65,543.1c-56.09,0-101.56,45.47-101.56,101.56,0,.88.01,1.76.03,2.63,1.42,109.78,101.52,218.64,101.52,218.64,0,0,100.1-108.86,101.52-218.64.02-.87.03-1.75.03-2.63,0-56.09-45.47-101.56-101.56-101.56Z"/>
        <circle class="cls-4" cx="2344.65" cy="641.32" r="44.4" transform="translate(233.25 1845.76) rotate(-45)"/>
      </g>
    </g>
    <g>
      <g>
        <circle class="cls-15" cx="708.15" cy="962.38" r="213"/>
        <g>
          <polygon class="cls-11" points="723.99 888.36 606.66 909.8 606.66 1062.3 723.99 1093.74 841.33 1062.3 841.33 909.8 723.99 888.36"/>
          <path class="cls-14" d="m723.99,1094.56c-.46,0-.82-.37-.82-.82v-157.58c0-.46.37-.82.82-.82s.82.37.82.82v157.58c0,.45-.37.82-.82.82Z"/>
          <polygon class="cls-4" points="767.52 972.12 790.58 966.43 790.19 920.36 767.52 926.27 767.52 972.12"/>
          <polygon class="cls-4" points="789.57 921.16 681.69 896.17 659.2 900.19 767.52 926.27 789.57 921.16"/>
          <path class="cls-14" d="m723.99,937.01l-117.52-26.41c-.44-.1-.72-.54-.62-.99.1-.44.55-.72.99-.62l117.16,26.33,117.16-26.33c.44-.1.89.18.99.62.1.44-.18.89-.62.99l-117.52,26.41Z"/>
        </g>
        <path class="cls-14" d="m716.84,1169.99c-114.48,0-207.61-93.13-207.61-207.61s93.13-207.61,207.61-207.61,207.61,93.13,207.61,207.61-93.13,207.61-207.61,207.61Zm0-413.57c-113.57,0-205.96,92.39-205.96,205.96s92.39,205.96,205.96,205.96,205.96-92.39,205.96-205.96-92.39-205.96-205.96-205.96Z"/>
      </g>
      <g>
        <path class="cls-7" d="m709.39,647.66c-35.03,0-63.43,28.4-63.43,63.43,0,.55,0,1.1.02,1.64.89,68.56,63.4,136.55,63.4,136.55,0,0,62.52-67.99,63.4-136.55.01-.55.02-1.09.02-1.64,0-35.03-28.4-63.43-63.43-63.43Z"/>
        <circle class="cls-4" cx="709.39" cy="709" r="27.73"/>
      </g>
    </g>
    <g>
      <g>
        <g>
          <circle class="cls-15" cx="1128.3" cy="379.05" r="139.63" transform="translate(62.44 908.85) rotate(-45)"/>
          <g>
            <polygon class="cls-11" points="1128.3 282.55 1076.65 294.54 1076.65 460.78 1128.3 475.55 1179.95 460.78 1179.95 294.54 1128.3 282.55"/>
            <path class="cls-14" d="m1128.3,476c-.25,0-.45-.2-.45-.45v-167.73c0-.25.2-.45.45-.45s.45.2.45.45v167.73c0,.25-.2.45-.45.45Z"/>
            <polygon class="cls-4" points="1147.16 286.93 1096.92 299.74 1096.92 322.45 1106.09 324.86 1106.09 302.15 1157.41 289.31 1147.16 286.93"/>
            <path class="cls-14" d="m1128.3,308.28l-.11-.03-51.65-13.28c-.24-.06-.38-.31-.32-.55.06-.24.31-.38.55-.32l51.54,13.25,51.54-13.25c.24-.06.48.08.55.32.06.24-.08.48-.32.55l-51.76,13.31Z"/>
          </g>
        </g>
        <path class="cls-14" d="m1116.86,515.79c-75.4,0-136.74-61.34-136.74-136.74s61.34-136.74,136.74-136.74,136.74,61.34,136.74,136.74-61.34,136.74-136.74,136.74Zm0-271.11c-74.09,0-134.37,60.28-134.37,134.37s60.28,134.37,134.37,134.37,134.37-60.28,134.37-134.37-60.28-134.37-134.37-134.37Z"/>
      </g>
      <g>
        <path class="cls-7" d="m1133.8,153.95c-20.37,0-36.89,16.51-36.89,36.89,0,.32,0,.64.01.96.52,39.87,36.87,79.41,36.87,79.41,0,0,36.36-39.54,36.87-79.41,0-.32.01-.64.01-.96,0-20.37-16.51-36.89-36.89-36.89Z"/>
        <circle class="cls-4" cx="1133.8" cy="189.63" r="16.13" transform="translate(198 857.26) rotate(-45)"/>
      </g>
    </g>
  </g>
  <g>
    <g>
      <path class="cls-15" d="m1439.87,292.11h542.16c12.65,0,22.93,10.27,22.93,22.93v71.45h-588.01v-71.45c0-12.65,10.27-22.93,22.93-22.93Z"/>
      <g>
        <circle class="cls-14" cx="1457.01" cy="341.31" r="13.26"/>
        <circle class="cls-4" cx="1511.64" cy="341.31" r="13.26"/>
        <circle class="cls-4" cx="1566.43" cy="341.31" r="13.26"/>
      </g>
    </g>
    <g>
      <path class="cls-8" d="m1416.94,396.33h588.01v358.84c0,9.51-7.72,17.23-17.23,17.23h-553.55c-9.51,0-17.23-7.72-17.23-17.23v-358.84h0Z"/>
      <g class="cls-2">
        <path class="cls-5" d="m2041.83,540.72c10.78-.77,18.9-10.14,18.13-20.93-.77-10.78-10.14-18.9-20.93-18.13l-137.7,9.88v-131.06c0-10.81-8.76-19.58-19.58-19.58s-19.58,8.77-19.58,19.58v133.86l-89.32,6.41-29.94-132.97c-1.45-6.43-7.84-10.47-14.27-9.02-6.43,1.45-10.47,7.84-9.02,14.27l29.15,129.46-185.1,13.28-58.48-172.36c-3.47-10.24-14.59-15.72-24.83-12.25-10.24,3.47-15.72,14.59-12.25,24.83l95.51,281.5-185.16,40.03c-10.57,2.28-17.28,12.7-15,23.27,1.98,9.17,10.1,15.45,19.12,15.45,1.37,0,2.76-.15,4.16-.45l189.55-40.97,37.04,109.18c2.77,8.15,10.38,13.29,18.54,13.29,2.09,0,4.21-.34,6.29-1.04,10.24-3.47,15.72-14.59,12.25-24.83l-73.74-217.32,171.65-12.32-54.17,244.73c-1.42,6.44,2.64,12.81,9.08,14.23.87.19,1.74.28,2.59.28,5.48,0,10.41-3.79,11.64-9.36l55.71-251.68,89-6.39v67.15c0,26.78,15.84,51.06,40.34,61.86l117.91,51.95c2.57,1.13,5.25,1.67,7.88,1.67,7.52,0,14.7-4.36,17.93-11.69,4.36-9.89-.13-21.45-10.02-25.81l-117.91-51.95c-10.31-4.54-16.98-14.76-16.98-26.03v-69.96l140.5-10.08Z"/>
      </g>
    </g>
    <path class="cls-14" d="m1974.08,789.46h-538.57c-12.94,0-23.47-10.53-23.47-23.47v-451.55c0-12.94,10.53-23.47,23.47-23.47h538.57c12.94,0,23.46,10.53,23.46,23.47v451.55c0,12.94-10.53,23.47-23.46,23.47Zm-538.57-496.22c-11.69,0-21.2,9.51-21.2,21.2v451.55c0,11.69,9.51,21.2,21.2,21.2h538.57c11.69,0,21.2-9.51,21.2-21.2v-451.55c0-11.69-9.51-21.2-21.2-21.2h-538.57Z"/>
    <g>
      <path class="cls-7" d="m1779.91,424.95c-20.03,0-36.26,16.23-36.26,36.26,0,.31,0,.63.01.94.51,39.2,36.25,78.07,36.25,78.07,0,0,35.74-38.87,36.25-78.07,0-.31.01-.62.01-.94,0-20.03-16.23-36.26-36.26-36.26Z"/>
      <circle class="cls-4" cx="1779.91" cy="460.02" r="15.85" transform="translate(196.04 1393.33) rotate(-45)"/>
    </g>
  </g>
  <g>
    <g>
      <rect class="cls-5" x="369.41" y="1602.27" width="379.24" height="255.95"/>
      <rect class="cls-4" x="541.09" y="1602.27" width="35.88" height="67.38"/>
    </g>
    <g>
      <rect class="cls-5" x="406.21" y="1346.31" width="379.24" height="255.95"/>
      <rect class="cls-4" x="577.88" y="1346.31" width="35.88" height="67.38"/>
    </g>
    <path class="cls-14" d="m748.65,1603.25h-342.44c-.54,0-.99-.44-.99-.99s.44-.99.99-.99h342.44c.54,0,.99.44.99.99s-.44.99-.99.99Z"/>
    <g>
      <rect class="cls-15" x="635.37" y="1627.96" width="335.26" height="230.26"/>
      <rect class="cls-4" x="785.44" y="1627.96" width="37.87" height="62.41"/>
    </g>
    <path class="cls-14" d="m748.65,1628.94h-113.28c-.54,0-.99-.44-.99-.99s.44-.99.99-.99h113.28c.54,0,.99.44.99.99s-.44.99-.99.99Z"/>
  </g>
  <g>
    <g>
      <path class="cls-14" d="m1469.12,1821.05h27.92l7.45,10.53,41.33,15.5c5.53,2.08,9.2,7.37,9.2,13.28h-90.95c-4.45,0-7.75-4.15-6.74-8.49l11.8-30.82Z"/>
      <polygon class="cls-9" points="1494.62 1798.71 1497.03 1821.05 1469.12 1821.05 1460.96 1799.41 1494.62 1798.71"/>
    </g>
    <g>
      <path class="cls-14" d="m1232.77,1821.05h27.91l7.45,10.53,41.33,15.5c5.53,2.08,9.2,7.37,9.2,13.28h-90.95c-4.45,0-7.75-4.15-6.74-8.49l11.8-30.82Z"/>
      <polygon class="cls-9" points="1262.06 1798.69 1260.69 1821.05 1232.77 1821.05 1229.21 1798.69 1262.06 1798.69"/>
    </g>
    <path class="cls-14" d="m1380.15,1200.74h-194.75s-34.53,80.17,7.38,157.87l20.69,442.5h65.49l26.6-453.73,142.32,453.73h69.99l-137.72-600.37Z"/>
    <polygon class="cls-13" points="1305.56 1347.37 1312.45 1299.06 1327.47 1417.24 1305.56 1347.37"/>
    <path class="cls-9" d="m1409.34,832.59l41.84-24.2,94.98-136.05,25.76,12.3-67.26,143.44c-2.85,5.91-6.51,11.38-10.88,16.28h0c-4.46,5-9.6,9.34-15.28,12.89l-39.75,24.86-29.42-49.53Z"/>
    <g>
      <path class="cls-14" d="m1686.1,696.93l-109.29,26.7c-5.95,1.45-11.96-2.19-13.41-8.14l-33.84-138.49c-1.45-5.95,2.19-11.96,8.14-13.41l109.29-26.7c5.95-1.45,11.96,2.19,13.41,8.14l33.84,138.49c1.45,5.95-2.19,11.96-8.14,13.41Z"/>
      <g class="cls-3">
        <polygon class="cls-6" points="1646.69 551.5 1543.13 577.39 1577.21 708.22 1680.89 682.52 1646.69 551.5"/>
      </g>
    </g>
    <path class="cls-12" d="m1397.85,1200.74l-23.31-256.58,72.21-52.87-43.99-73.3-59.34,33.72c-15.66,8.9-32.15,16.27-49.23,22.01l-25.03,8.41-34.93,2.57c-34.08,2.51-62.29,28.39-66.53,62.3-.09.72-.17,1.44-.24,2.16l-12.66,290.71s14.44,33.1,89.34,19.56c74.9-13.54,153.7-58.69,153.7-58.69Z"/>
    <path class="cls-9" d="m1546.16,672.34l4.03-10.85,41.99,1.8c.78.03,1.37.74,1.25,1.52h0c-.69,4.68-4.44,8.32-9.14,8.88l-22.19,2.63s.64,18.73-8.49,20.81c-9.13,2.08-13.91-15.58-13.91-15.58l6.44-9.23Z"/>
    <g>
      <rect class="cls-11" x="1049.3" y="1068.25" width="278.16" height="183.73"/>
      <g class="cls-1">
        <rect class="cls-10" x="1236.32" y="1049.57" width="103.7" height="213.11"/>
        <path class="cls-14" d="m1236.32,1170.35c-.65,0-1.18-.53-1.18-1.18v-100.92c0-.65.53-1.18,1.18-1.18s1.18.53,1.18,1.18v100.92c0,.65-.53,1.18-1.18,1.18Z"/>
        <path class="cls-14" d="m1236.32,1253.17c-.65,0-1.18-.53-1.18-1.18v-64.8c0-.65.53-1.18,1.18-1.18s1.18.53,1.18,1.18v64.8c0,.65-.53,1.18-1.18,1.18Z"/>
      </g>
    </g>
    <path class="cls-12" d="m1175.99,921.67l-70.4,107.31,77.45,56.49,60.03-73.62s-30.47-82.62-67.08-90.19Z"/>
    <path class="cls-14" d="m1197.09,1069.43c-.26,0-.53-.09-.75-.27-.51-.41-.58-1.16-.17-1.67l45.98-56.38c.41-.51,1.16-.58,1.67-.17.51.41.58,1.16.17,1.67l-45.98,56.38c-.23.29-.57.44-.92.44Z"/>
    <g>
      <path class="cls-9" d="m1188.45,1247.04l-56.53-138.56,29.31-38.96-47.76-34.84-26.04,40.94c-3.91,6.14-6.67,12.95-8.15,20.08-3.18,15.33-.27,31.3,8.13,44.52l77.03,119.93c.2.89.76,1.81,1.77,2.76,9.78,9.12,24.79,9.05,34.14,7.54,13.64-2.21,17.79-18.45,17.79-18.45l-29.7-4.95Z"/>
      <path class="cls-14" d="m1131.93,1109.66c-.4,0-.79-.2-1.01-.57-.07-.11-6.21-9.64-25.28-8.91-.63,0-1.2-.49-1.23-1.14-.02-.65.49-1.2,1.14-1.23,20.58-.77,27.12,9.6,27.39,10.04.34.56.16,1.29-.4,1.63-.19.12-.4.17-.61.17Z"/>
    </g>
    <g>
      <g>
        <g>
          <path class="cls-9" d="m1301.61,794.05c-6.59-20.54-10.93-41.73-13.3-63.17l-.69-6.2-96.74,24.1c5.56,63.29,27.68,90.78,47.56,102.36l-2.82,36.25c-1.11,14.26,10.17,26.45,24.47,26.45h0c14.42,0,25.73-12.36,24.45-26.72l-2.85-32.08c11.07-5.24,19.7-15.43,22.74-28.2,2.59-10.87.34-22.95-2.82-32.78Z"/>
          <path class="cls-14" d="m1262.57,806.06c-.47,0-.9-.32-1.02-.8-.14-.56.2-1.13.76-1.27l8.93-2.23c.77-.19,1.39-.72,1.71-1.45.31-.73.27-1.55-.12-2.24l-14.72-26.05c-.29-.5-.11-1.15.4-1.43.51-.28,1.15-.11,1.43.4l14.72,26.05c.72,1.27.8,2.76.22,4.1-.58,1.34-1.72,2.31-3.13,2.66l-8.93,2.23c-.09.02-.17.03-.25.03Z"/>
          <path class="cls-14" d="m1247.98,777.35c.68,2.71-.98,5.46-3.69,6.14-2.71.68-5.46-.98-6.14-3.69-.68-2.71.98-5.46,3.69-6.14,2.71-.68,5.46.98,6.14,3.69Z"/>
          <path class="cls-14" d="m1282.78,767.65c.68,2.71-.98,5.46-3.69,6.14-2.71.68-5.46-.98-6.14-3.69-.68-2.71.98-5.46,3.69-6.14,2.71-.68,5.46.98,6.14,3.69Z"/>
          <path class="cls-14" d="m1247.41,769.84l-20.2,5.03c-1.49.37-3-.54-3.37-2.02h0c-.37-1.49.54-3,2.02-3.37l20.2-5.03c1.49-.37,3,.54,3.37,2.02h0c.37,1.49-.54,3-2.02,3.37Z"/>
          <path class="cls-14" d="m1286.16,759.09l-20.2,5.03c-1.49.37-3-.54-3.37-2.02h0c-.37-1.49.54-3,2.02-3.37l20.2-5.03c1.49-.37,3,.54,3.37,2.02h0c.37,1.49-.54,3-2.02,3.37Z"/>
          <path class="cls-14" d="m1202.13,749.88s9.87,33.69,3.08,41.08c-6.79,7.39-12.05-2.26-12.05-2.26,0,0-20.18-31.95-3.57-44.27,10.18-7.55,12.54,5.45,12.54,5.45Z"/>
          <path class="cls-9" d="m1207.02,787.55c2.18,8.75-.89,17.05-6.86,18.54-5.97,1.49-12.58-4.4-14.76-13.15s.89-17.05,6.86-18.54c5.97-1.49,12.58,4.4,14.76,13.15Z"/>
          <path class="cls-14" d="m1269,824.15c-11.05,0-16.84-6.86-16.91-6.94-.37-.45-.3-1.11.14-1.48.45-.37,1.11-.3,1.48.14.34.41,8.25,9.65,23.85,4.8.55-.17,1.14.14,1.31.69.17.55-.14,1.14-.69,1.31-3.38,1.05-6.44,1.47-9.18,1.47Z"/>
          <path class="cls-14" d="m1201.25,796.37c-.57,0-1.04-.46-1.05-1.03,0-.1-.22-10.44-4.71-13.37-1.5-.98-3.31-.99-5.55-.04-.54.23-1.15-.02-1.38-.56-.23-.53.02-1.15.56-1.38,2.89-1.22,5.42-1.15,7.52.22,5.42,3.53,5.65,14.62,5.66,15.09,0,.58-.45,1.06-1.03,1.07h-.02Z"/>
          <path class="cls-12" d="m1183.04,760.93l111.28-36.26s-10-47-66.15-36.88c-67.11,12.09-45.12,73.14-45.12,73.14Z"/>
          <path class="cls-14" d="m1203.33,754.32s104.01-8.14,116.16-26.42c5.74-8.65-29.46-14.31-29.46-14.31,0,0-61,31.86-86.7,40.73Z"/>
        </g>
        <path class="cls-14" d="m1261.88,858.76s-.06,0-.09,0c-13.04-1.12-23.4-6.46-23.84-6.68-.51-.27-.71-.9-.45-1.42.27-.51.9-.71,1.42-.45.1.05,10.43,5.37,23.04,6.45.58.05,1.01.56.96,1.14-.05.55-.51.96-1.04.96Z"/>
      </g>
      <g>
        <path class="cls-4" d="m1266.62,912.96s4.49,29.85-13.72,25.16c-18.22-4.69-32.27-35.25-28.95-53.08l11.9-.63s3.87,25.25,30.77,28.54Z"/>
        <path class="cls-4" d="m1271.83,910.85s11.54,20.67,25.33,8.08c13.8-12.59-5-44.53-5-44.53l-8.51,2.86s1.81,26.24-11.83,33.59Z"/>
      </g>
    </g>
    <path class="cls-14" d="m1374.54,945.34c-.6,0-1.12-.46-1.18-1.07l-3.94-40.1c-.06-.65.41-1.23,1.06-1.29.65-.06,1.23.41,1.29,1.06l3.94,40.1c.06.65-.41,1.23-1.06,1.29-.04,0-.08,0-.12,0Z"/>
    <g>
      <path class="cls-7" d="m1609.13,600.94c-8.2,2-13.22,10.28-11.22,18.48.03.13.06.26.1.38,4.13,16,22.65,28.34,22.65,28.34,0,0,10.75-19.49,7.03-35.59-.03-.13-.06-.26-.09-.39-2-8.2-10.28-13.22-18.48-11.22Z"/>
      <path class="cls-4" d="m1619.13,613.71c.88,3.58-1.32,7.2-4.91,8.08-3.58.88-7.2-1.32-8.08-4.91-.88-3.59,1.32-7.2,4.91-8.08,3.58-.88,7.2,1.32,8.08,4.91Z"/>
    </g>
  </g>
  <g>
    <g>
      <rect class="cls-15" x="2037.59" y="1360.29" width="397.96" height="241.41"/>
      <rect class="cls-4" x="2216" y="1360.29" width="41.15" height="59.09"/>
    </g>
    <g>
      <g>
        <g>
          <rect class="cls-5" x="1769.65" y="1553.23" width="455.06" height="307.12"/>
          <rect class="cls-4" x="1975.65" y="1553.23" width="43.06" height="80.85"/>
        </g>
        <g>
          <rect class="cls-5" x="2172.61" y="1601.7" width="383.24" height="258.65"/>
          <rect class="cls-4" x="2346.1" y="1601.7" width="36.26" height="68.09"/>
        </g>
        <path class="cls-14" d="m2172.61,1861.54c-.65,0-1.18-.53-1.18-1.18v-259.84h53.28c.65,0,1.18.53,1.18,1.18s-.53,1.18-1.18,1.18h-50.91v257.47c0,.65-.53,1.18-1.18,1.18Z"/>
      </g>
      <path class="cls-14" d="m2224.71,1554.42h-187.12c-.65,0-1.18-.53-1.18-1.18s.53-1.18,1.18-1.18h187.12c.65,0,1.18.53,1.18,1.18s-.53,1.18-1.18,1.18Z"/>
    </g>
  </g>
  <path class="cls-14" d="m2957.55,1865.36H64.29c-2.76,0-5-2.24-5-5s2.24-5,5-5h2893.25c2.76,0,5,2.24,5,5s-2.24,5-5,5Z"/>
</svg>